<svg xmlns="http://www.w3.org/2000/svg" xmlns:xlink="http://www.w3.org/1999/xlink" viewBox="0 0 155.7 65.4"><path fill="#7c7c7c" d="M213.6-92.2h322v454h-322z"/><use xlink:href="#B" fill="#c1c1c1"/><defs><path id="A" d="M54.9 12.1h11.4v33.5H54.9v-4h-.1c-2.5 3-5.9 4.7-9.9 4.7-6.7 0-10-4.7-10-11.4V12.1h11.4v20.1c0 3.3 1.7 4.7 4 4.7 1.7 0 3.3-.7 4.7-1.3V12.1z"/><path id="B" d="M15.7 46.2c-5.7 0-12.1-.7-16.1-1.7l2-9c5.7 1.3 10 1.7 12.7 1.7 2.3 0 4-.3 4-1.5 0-1.1-2-1.1-4-1.5-8-1.3-14.1-4-14.1-12.1 0-8 5.7-10.7 14.1-10.7 5.7 0 10.7.7 14.7 1.7l-2 9c-5.7-1.3-9.4-1.7-12.1-1.7-2 0-3.3.2-3.3 1.3 0 1 1.1 1.1 3.7 1.7 5.7 1.3 14.4 2.7 14.4 11.4.1 8.1-5.6 11.4-14 11.4z"/><path id="C" d="M11.8 48.3l-1.9-.2c1.7-14.8 6-33.6 16.7-39.1 5-2.6 10.8-2.1 17.4 1.5 21.5 11.5 39.2 5.3 39.4 5.2l.7 1.8c-.2.1-4.7 1.7-12.1 1.9-6.8.2-17.2-1-28.8-7.2-6-3.2-11.2-3.7-15.5-1.4-5.8 2.7-12.9 11.6-15.9 37.5z"/><path id="D" d="M13.4 65.2l-1.8-.2c2.5-21.8 7.8-34.7 16.1-39.3 4.9-2.7 10.7-2.5 17.4.7 11.8 5.5 21.4 4 27.4 1.7 6.5-2.5 10.3-6.2 10.3-6.3l1.3 1.2c-.2.2-4.1 4.1-11 6.7-6.3 2.4-16.5 4-28.8-1.7-6.1-2.9-11.5-3.2-15.8-.7-7.6 4.2-12.7 17-15.1 37.9z"/><path id="E" d="M14.8 87.7s0-.4.1-1.2l.3-3.4.6-5.2 1.2-6.7c.5-2.5 1.2-5.1 2.1-7.8.4-1.4 1-2.8 1.6-4.2s1.3-2.8 2.1-4.2c.4-.7.9-1.4 1.3-2 .5-.7 1-1.3 1.6-1.9l1.8-1.7 2.1-1.5c.7-.4 1.5-.8 2.3-1.1s1.6-.5 2.5-.7 1.7-.2 2.6-.3l2.6.1c1.7.2 3.4.6 5 1.1.4.1.8.3 1.2.4s.8.3 1.2.4.8.3 1.2.4.7.3 1.1.4c3.1.9 6.2 1.4 9.2 1.2 1.5-.1 3-.3 4.4-.7s2.8-.9 4-1.5c2.5-1.2 4.7-2.7 6.6-4.3s3.4-3.3 4.7-4.8l3.1-4.2c.8-1.2 1.4-2.2 1.7-2.9.4-.7.5-1.1.5-1.1l-.5 1.1c-.3.7-.8 1.7-1.6 3-.7 1.3-1.7 2.8-2.9 4.4s-2.7 3.4-4.6 5.1-4.1 3.4-6.7 4.7c-1.3.7-2.7 1.2-4.2 1.6s-3 .7-4.6.9c-3.2.3-6.5-.1-9.7-1.1-.4-.1-.8-.3-1.2-.4s-.8-.3-1.2-.4-.8-.3-1.2-.4-.8-.3-1.2-.4c-1.5-.5-3.1-.8-4.7-1-3.2-.3-6.4.3-9.1 1.8-.7.4-1.3.8-1.9 1.3s-1.2 1-1.7 1.6c-1.1 1.1-2 2.4-2.8 3.6-.8 1.3-1.5 2.6-2.1 4-.6 1.3-1.2 2.7-1.6 4-1 2.7-1.7 5.2-2.3 7.6l-1.5 6.6-.9 5.1-.5 4.7z"/><path id="F" d="M117.9 45.5h-11.4V-1.3h11.4v17.4h.1c2.5-3 5.9-4.7 9.9-4.7 6.7 0 10 4.7 10 11.4v22.8h-11.4V25.4c0-3.3-1.3-4.7-4-4.7-1.7 0-3.3.7-4.7 1.3v23.5z"/><path id="G" d="M297 36.9s0-.4.1-1.2l.3-3.3.3-2.3.4-2.7 1.3-6.5c.5-2.4 1.3-4.9 2.2-7.6l1.7-4c.6-1.3 1.3-2.7 2.2-4 .4-.7.9-1.3 1.3-2l1.6-1.9c1.1-1.2 2.4-2.3 3.9-3.1a13.98 13.98 0 0 1 4.8-1.8c.4-.1.9-.1 1.3-.2h1.3c.4 0 .9 0 1.3.1s.9.1 1.3.2c1.7.3 3.3.8 4.8 1.5.8.3 1.5.7 2.2 1.1l1.1.6 4 2.4a4.67 4.67 0 0 0 1 .5c.7.4 1.4.7 2.1 1l2.1 1 8 3.2 7.4 2.2 6.4 1.4 5 .8c1.4.2 2.5.3 3.3.3s1.2.1 1.2.1-1.6.1-4.5 0l-5.1-.4c-2-.2-4.2-.6-6.6-1.1l-7.6-1.9a75.91 75.91 0 0 1-8.3-3l-4.2-1.9-1.1-.5-2.2-1.2-1-.6-1.1-.6-1-.6c-.7-.4-1.4-.7-2.1-1-1.4-.6-2.9-1.1-4.4-1.3-3-.5-6.1 0-8.6 1.5-1.3.7-2.4 1.7-3.5 2.8-.5.5-1 1.1-1.5 1.7s-.9 1.2-1.3 1.8c-1.6 2.4-2.9 5.1-3.9 7.6s-1.8 5-2.5 7.3l-.9 3.3-.7 3-.6 2.7-.5 2.3-.6 3.2c0 .7-.1 1.1-.1 1.1z"/><path id="H" d="M302.4 82.2l-1.6-.2c1.1-10 2.6-17.5 4.7-23.6 2.7-8 6.2-13.2 10.8-15.9 4.8-2.8 10.6-2.8 17.4-.1 9.9 4 19 2.8 27.1-3.5 6.1-4.8 9.2-10.8 9.3-10.9l1.4.7c-.1.3-3.4 6.4-9.7 11.4-4 3.1-9.8 6.2-17.1 6.2-3.5 0-7.4-.7-11.6-2.4-6.3-2.6-11.7-2.6-16 0-9.9 5.9-13.2 24.7-14.7 38.3z"/><path id="I" d="M347.5 63.8l.5-.6c1 1 2 1.5 3.3 1.5 1.5 0 2.6-1 2.6-2.2 0-1.1-.5-1.8-2.7-2.5-2.5-.9-3.3-1.8-3.3-3.3 0-1.6 1.4-2.9 3.3-2.9 1.3 0 2.3.4 3.3 1.2l-.5.6c-.9-.8-1.8-1.1-2.8-1.1-1.5 0-2.5.9-2.5 2.1 0 1.1.5 1.8 2.8 2.6 2.4.9 3.2 1.8 3.2 3.2 0 1.7-1.4 3-3.4 3-1.4 0-2.6-.5-3.8-1.6z"/><path id="J" d="M303.1 145c-5.7 0-12.1-.7-16.1-1.7l2-9c5.7 1.3 10 1.7 12.7 1.7 2.3 0 4-.3 4-1.5 0-1.1-2-1.1-4-1.5-8-1.3-14.1-4-14.1-12.1 0-8 5.7-10.7 14.1-10.7 5.7 0 10.7.7 14.7 1.7l-2 9c-5.7-1.3-9.4-1.7-12.1-1.7-2 0-3.3.2-3.3 1.3 0 1 1.1 1.1 3.7 1.7 5.7 1.3 14.4 2.7 14.4 11.4 0 8-5.7 11.4-14 11.4z"/><path id="K" d="M299.1 147.1l-1.9-.2c1.7-14.8 6-33.6 16.7-39.1 5-2.6 10.8-2.1 17.4 1.5 21.5 11.5 39.2 5.3 39.4 5.2l.7 1.8c-.2.1-4.7 1.7-12.1 1.9-6.8.2-17.2-1-28.8-7.2-6-3.2-11.2-3.7-15.5-1.4-5.8 2.7-12.9 11.5-15.9 37.5z"/><path id="L" d="M374.7 145c-5.7 0-12.1-.7-16.1-1.7l2-9c5.7 1.3 10 1.7 12.7 1.7 2.3 0 4-.3 4-1.5 0-1.1-2-1.1-4-1.5-8-1.3-14.1-4-14.1-12.1 0-8 5.7-10.7 14.1-10.7 5.7 0 10.7.7 14.7 1.7l-2 9c-5.7-1.3-9.4-1.7-12.1-1.7-2 0-3.3.2-3.3 1.3 0 1 1.1 1.1 3.7 1.7 5.7 1.3 14.4 2.7 14.4 11.4.1 8-5.6 11.4-14 11.4z"/><path id="M" d="M443 98.7v10h-11.4v-10H443zm0 12.1v33.5h-11.4v-33.5H443z"/><path id="N" d="M306.7 152.6h3.7c1.2 0 2.1.4 2.8 1 .5.5.7 1.1.7 1.9 0 1.6-1 2.4-2 2.7 1.3.3 2.5 1.2 2.5 2.7 0 1.9-1.5 3.1-3.9 3.1h-3.8v-11.4zm6.4 2.9c0-1.3-1-2.1-2.7-2.1h-2.9v4.5h2.8c1.7-.1 2.8-.9 2.8-2.4zm-2.7 3.1h-2.8v4.6h3c1.9 0 3.1-.9 3.1-2.3-.1-1.5-1.2-2.3-3.3-2.3z"/><path id="O" d="M393.2 152.6h3.8c1.3 0 2.3.4 2.9 1s.9 1.3.9 2.2c0 1.8-1.2 2.9-2.9 3.2l3.3 4.8h-1l-3.1-4.7h-3v4.7h-.8v-11.2zm3.5 5.9c2.1 0 3.3-1 3.3-2.6s-1.2-2.5-3.1-2.5H394v5.2h2.7z"/><path id="P" d="M416.6 158.3v-.1c0-3.3 1.9-5.8 4.8-5.8s4.8 2.5 4.8 5.8v.1c0 3.3-1.9 5.8-4.8 5.8s-4.8-2.5-4.8-5.8zm8.8 0v-.1c0-2.9-1.7-5.1-4-5.1s-4 2.1-4 5v.1c0 2.9 1.7 5.1 4 5.1 2.3.1 4-2 4-5z"/><path id="Q" d="M405.2 259.8h-11.4v-46.9h11.4v17.4h.1c2.5-3 5.9-4.7 9.9-4.7 6.7 0 10 4.7 10 11.4v22.8h-11.4v-20.1c0-3.3-1.3-4.7-4-4.7-1.7 0-3.3.7-4.7 1.3v23.5z"/><path id="R" d="M342.6 240.3v3.1c5 .8 8 .8 12 .2v-2.5c-4 .3-7 .1-12-.8z"/><path id="S" d="M342.6 245.3v3.3c4 .6 8 .5 12-.4v-2.7c-4 .5-7 .6-12-.2z"/><path id="T" d="M342.6 235.3v3c5 1 8 1.1 12 .9v-2.4c-4 0-7-.4-12-1.5z"/><path id="U" d="M354.6 254.6c-6 1.6-13.1 1.8-21.6-1.8-3.9-1.7-7.5-2.4-10.6-2.1.1 1.4.4 2.8.8 3.9 3.3-.2 6.9.5 10.8 2.1 1.9.8 3.8 1.3 5.7 1.7 1-.7 2-1.7 2.9-2.7v3.2c4 .4 8-.1 12-1.5v-2.8z"/><path id="V" d="M333.6 240.7v-3.2c-1-.3-1.3-.7-2.2-1.1-3.3-1.6-6.8-2.5-8.8-2.6v3.8c3 0 6.4.9 10.1 2.6.4.2.9.3.9.5z"/><path id="W" d="M341.8 250.2c-1.2.5-2.5.9-3.8.9-2 0-3.4-.9-3.9-3.2-.5-.2-.9-.4-1.5-.7-3.7-1.7-7-2.4-10-2.3v4c3-.3 7.2.5 11.3 2.2 7.3 3.1 13.7 3.6 20.7 1.6V250c-2 .4-4.4.7-6.9.7-1.8.1-3.9-.1-5.9-.5z"/><path id="X" d="M333.2 245.7c.2.1.4.2.4.3v-3.3c-1-.3-1-.5-1.7-.9-3.5-1.6-6.3-2.5-9.3-2.5v3.9c3-.1 6.6.7 10.6 2.5z"/><path id="Y" d="M322.6 228.1v3.7c3 .1 6.1 1 9.7 2.8.5.3.3.5 1.3.7v-3.1c-1-.4-1.7-.9-2.7-1.4-3.1-1.5-6.3-2.4-8.3-2.7z"/><path id="Z" d="M332.5 260.7c1.8 0 3.5-.4 5.1-1l-4.2-1.4c-3.4-1.4-6.5-2.1-9.4-2 1.6 2.8 4.5 4.4 8.5 4.4z"/><path id="a" d="M331.5 225.8h-8.9v.4c3 .2 5.9 1.2 9.2 3 .7.4.8.7 1.8 1v-4.4h-2.1z"/><path id="b" d="M343.7 225.8h-1.1v2.6c4 1.3 8 2 12 2.3v-2.1c-3-.6-7-1.8-10.9-2.8z"/><path id="c" d="M342.6 233.3c5 1.1 8 1.5 12 1.6v-2.3c-4-.3-7-1-12-2.2v2.9z"/></defs><clipPath id="d"><use xlink:href="#A"/></clipPath><g clip-path="url(#d)"><path fill="#fd713c" d="M14.5-4.4h60.4V56H14.5z"/></g><g clip-path="url(#d)" fill="#fff0ee"><path d="M9.7 36.9s0-.4.1-1.2l.3-3.3.3-2.3.4-2.7 1.3-6.5c.5-2.4 1.3-4.9 2.2-7.6l1.7-4c.6-1.3 1.3-2.7 2.2-4 .4-.7.9-1.3 1.3-2l1.6-1.9C22.2.2 23.5-.9 25-1.7a13.98 13.98 0 0 1 4.8-1.8c.4-.1.9-.1 1.3-.2h1.3c.4 0 .9 0 1.3.1s.9.1 1.3.2c1.7.3 3.3.8 4.8 1.5.8.3 1.5.7 2.2 1.1l1.1.6 4 2.4a4.67 4.67 0 0 0 1 .5c.7.4 1.4.7 2.1 1l2.1 1 8 3.2 7.4 2.2 6.4 1.4 5 .8c1.4.2 2.5.3 3.3.3s1.2.1 1.2.1-1.6.1-4.5 0l-5.1-.4c-2-.2-4.2-.6-6.6-1.1l-7.6-1.9a75.91 75.91 0 0 1-8.3-3l-4.2-1.9-1.1-.5-1.1-.6c-.3-.3-.7-.5-1.1-.7L43 2l-1.1-.6-1-.6c-.7-.4-1.4-.7-2.1-1-1.4-.6-2.9-1.1-4.4-1.3-3-.5-6.1 0-8.6 1.5-1.3.7-2.4 1.7-3.5 2.8-.5.5-1 1.1-1.5 1.7-.4.5-.8 1.1-1.2 1.7-1.6 2.4-2.9 5.1-3.9 7.6s-1.8 5-2.5 7.3l-.9 3.3-.7 3-.6 2.7-.5 2.3-.6 3.2c-.2.9-.2 1.3-.2 1.3zm1.5 5.8l-2-.2c1.1-9.3 2.8-17.3 5.2-23.6C17.4 11 21.3 5.8 26 3.4c5-2.5 10.8-2 17.3 1.7 11 6.2 21.3 8.2 28 8.8 7.2.6 11.9-.2 12-.2l.4 2c-.2 0-4.9.9-12.4.3-6.9-.6-17.5-2.6-28.8-9-6-3.5-11.2-4.1-15.5-1.9C16.4 10.5 12.6 31 11.2 42.7z"/><use xlink:href="#C"/><path d="M12.3 54l-1.9-.2c2.5-21.5 8-34.7 16.5-39.2 4.9-2.6 10.8-2.2 17.4 1.2 11.4 5.8 21.3 6.1 27.6 5.2 6.9-.9 11.1-3.2 11.2-3.3l.9 1.6c-.2.1-4.5 2.5-11.7 3.5-6.6.9-17 .7-28.8-5.4-6-3.1-11.3-3.5-15.6-1.2C18 21.4 14 39.6 12.3 54z"/><path d="M12.9 59.6l-1.9-.2c2.5-21.5 8-34.7 16.3-39.3 4.9-2.7 10.7-2.3 17.4.9 11.5 5.7 21.3 5 27.5 3.5 6.7-1.7 10.7-4.7 10.8-4.8l1.1 1.4c-.2.1-4.3 3.3-11.4 5.1-6.5 1.6-16.7 2.4-28.8-3.6-6.1-3-11.4-3.3-15.7-1-7.8 4.4-12.9 17.1-15.3 38z"/><use xlink:href="#D"/><path d="M14 70.9l-1.7-.2C14.8 48.8 20 36 28.2 31.3c4.8-2.7 10.7-2.6 17.4.4 9.6 4.3 18.8 4.3 27.3-.1 6.4-3.2 9.9-7.7 10-7.8l1.4 1.1c-.2.2-3.8 4.9-10.5 8.3a30.8 30.8 0 0 1-14.1 3.4c-4.4 0-9.3-.9-14.7-3.3-6.2-2.8-11.5-3-15.9-.5-7.8 4.4-12.7 16.8-15.1 38.1z"/><path d="M14.5 76.5l-1.6-.2c1.6-13.9 5-33.2 15.7-39.4 4.8-2.8 10.7-2.7 17.4.2 9.7 4.1 18.9 3.5 27.2-1.8 6.2-4 9.6-9.3 9.7-9.4l1.4.9c-.1.2-3.6 5.6-10.1 9.8-6.1 3.9-16 7.4-28.8 1.9-6.3-2.7-11.6-2.8-15.9-.3-4.2 2.4-7.7 7.5-10.2 14.9-2.2 6.2-3.7 13.8-4.8 23.4z"/><path d="M15 82.2l-1.5-.2c1.1-10 2.6-17.5 4.7-23.6 2.7-8 6.2-13.2 10.8-15.9 4.8-2.8 10.6-2.8 17.4-.1 9.9 4 19 2.8 27.1-3.5 6.1-4.8 9.2-10.8 9.3-10.9l1.4.7c-.1.3-3.4 6.4-9.7 11.4-4 3.1-9.8 6.2-17.1 6.2-3.5 0-7.4-.7-11.6-2.4-6.3-2.6-11.7-2.6-16 0-10 5.9-13.2 24.7-14.8 38.3z"/><use xlink:href="#E"/></g><g fill="#c1c1c1"><use xlink:href="#B" x="71.7"/><use xlink:href="#F"/><path d="M155.7 0v10h-11.4V0h11.4zm0 12.1v33.5h-11.4V12.1h11.4z"/></g><path d="M19.4 53.8h3.7c1.2 0 2.1.4 2.8 1 .5.5.7 1.1.7 1.9 0 1.6-1 2.4-2 2.7 1.3.3 2.5 1.2 2.5 2.7 0 1.9-1.5 3.1-3.9 3.1h-3.8V53.8zm6.4 2.9c0-1.3-1-2.1-2.7-2.1h-2.9v4.5H23c1.7 0 2.8-.8 2.8-2.4zm-2.7 3.1h-2.8v4.6h3c1.9 0 3.1-.9 3.1-2.3-.1-1.4-1.3-2.3-3.3-2.3zm20.2-6h.8v11.4h-.8V53.8zm16.9 10l.5-.6c1 1 2 1.5 3.3 1.5 1.5 0 2.6-1 2.6-2.2 0-1.1-.5-1.8-2.7-2.5-2.5-.9-3.3-1.8-3.3-3.3 0-1.6 1.4-2.9 3.3-2.9 1.3 0 2.3.4 3.3 1.2l-.5.6c-.9-.8-1.8-1.1-2.8-1.1-1.5 0-2.5.9-2.5 2.1 0 1.1.5 1.8 2.8 2.6 2.4.9 3.2 1.8 3.2 3.2 0 1.7-1.4 3-3.4 3-1.5 0-2.7-.5-3.8-1.6zm25.7-9.2h-3.3v-.7H90v.7h-3.3v10.6h-.8V54.6zm20-.8h3.8c1.3 0 2.3.4 2.9 1s.9 1.3.9 2.2c0 1.8-1.2 2.9-2.9 3.2l3.3 4.8h-1l-3.1-4.7h-3V65h-.8V53.8zm3.5 6c2.1 0 3.3-1 3.3-2.6s-1.2-2.5-3.1-2.5h-2.9v5.2h2.7zm19.9-.2v-.1c0-3.3 1.9-5.8 4.8-5.8s4.8 2.5 4.8 5.8v.1c0 3.3-1.9 5.8-4.8 5.8s-4.8-2.5-4.8-5.8zm8.7 0v-.1c0-2.9-1.7-5.1-4-5.1s-4 2.1-4 5v.1c0 2.9 1.7 5.1 4 5.1 2.4 0 4-2.1 4-5z" fill="#f2631c"/><path fill="#fff" d="M303.1 46.2c-5.7 0-12.1-.7-16.1-1.7l2-9c5.7 1.3 10 1.7 12.7 1.7 2.3 0 4-.3 4-1.5 0-1.1-2-1.1-4-1.5-8-1.3-14.1-4-14.1-12.1 0-8 5.7-10.7 14.1-10.7 5.7 0 10.7.7 14.7 1.7l-2 9c-5.7-1.3-9.4-1.7-12.1-1.7-2 0-3.3.2-3.3 1.3 0 1 1.1 1.1 3.7 1.7 5.7 1.3 14.4 2.7 14.4 11.4 0 8.1-5.7 11.4-14 11.4z"/><defs><path id="e" d="M342.2 12.1h11.4v33.5h-11.4v-4h-.1c-2.5 3-5.9 4.7-9.9 4.7-6.7 0-10-4.7-10-11.4V12.1h11.4v20.1c0 3.3 1.7 4.7 4 4.7 1.7 0 3.3-.7 4.7-1.3V12.1z"/></defs><clipPath id="f"><use xlink:href="#e"/></clipPath><g clip-path="url(#f)"><path fill="#fd713c" d="M301.8-4.4h60.4V56h-60.4z"/></g><g clip-path="url(#f)" fill="#fff0ee"><use xlink:href="#G"/><path d="M298.6 42.7l-2-.2c1.1-9.3 2.8-17.3 5.2-23.6 3-7.9 6.9-13.1 11.6-15.5 5-2.5 10.8-2 17.3 1.7 11 6.2 21.3 8.2 28 8.8 7.2.6 11.9-.2 12-.2l.4 2c-.2 0-4.9.9-12.4.3-6.9-.6-17.5-2.6-28.8-9-5.9-3.3-11.1-3.9-15.5-1.7-10.7 5.2-14.5 25.7-15.8 37.4z"/><use xlink:href="#C" x="287.3"/><path d="M299.7 54l-1.9-.2c2.5-21.5 8-34.7 16.5-39.2 4.9-2.6 10.8-2.2 17.4 1.2 11.4 5.8 21.3 6.1 27.6 5.2 6.9-.9 11.1-3.2 11.2-3.3l.9 1.6c-.2.1-4.5 2.5-11.7 3.5-6.6.9-17 .7-28.8-5.4-6-3.1-11.3-3.5-15.6-1.2-10 5.2-14 23.4-15.6 37.8z"/><path d="M300.2 59.6l-1.8-.2c2.5-21.5 8-34.7 16.3-39.3 4.9-2.7 10.7-2.3 17.4.9 11.5 5.7 21.3 5 27.5 3.5 6.7-1.7 10.7-4.7 10.8-4.8l1.1 1.4c-.2.1-4.3 3.3-11.4 5.1-6.5 1.6-16.7 2.4-28.8-3.6-6.1-3-11.4-3.3-15.7-1-7.8 4.4-13 17.1-15.4 38z"/><path d="M300.7 65.2L299 65c2.5-21.8 7.8-34.7 16.1-39.3 4.9-2.7 10.7-2.5 17.4.7 11.8 5.5 21.4 4 27.4 1.7 6.5-2.5 10.3-6.2 10.3-6.3l1.3 1.2c-.2.2-4.1 4.1-11 6.7-6.3 2.4-16.5 4-28.8-1.7-6.1-2.9-11.5-3.2-15.8-.7-7.6 4.2-12.7 17-15.2 37.9z"/><path d="M301.3 70.9l-1.7-.2c2.5-21.8 7.7-34.7 15.9-39.4 4.8-2.7 10.7-2.6 17.4.4 9.6 4.3 18.8 4.3 27.3-.1 6.4-3.2 9.9-7.7 10-7.8l1.4 1.1c-.2.2-3.8 4.9-10.5 8.3a30.8 30.8 0 0 1-14.1 3.4c-4.4 0-9.3-.9-14.7-3.3-6.2-2.8-11.5-3-15.9-.5-7.7 4.4-12.7 16.8-15.1 38.1z"/><path d="M301.8 76.5l-1.6-.2c1.6-13.9 5-33.2 15.7-39.4 4.8-2.8 10.7-2.7 17.4.2 9.7 4.1 18.9 3.5 27.2-1.8 6.2-4 9.6-9.3 9.7-9.4l1.4.9c-.1.2-3.6 5.6-10.1 9.8-6 3.9-16 7.4-28.8 1.9-6.3-2.7-11.6-2.8-15.9-.3-4.2 2.4-7.7 7.5-10.2 14.9-2.1 6.2-3.7 13.8-4.8 23.4z"/><use xlink:href="#H"/><use xlink:href="#E" x="287.4"/></g><g fill="#fff"><use xlink:href="#B" x="359"/><use xlink:href="#F" x="287.3"/><path d="M443 0v10h-11.4V0H443zm0 12.1v33.5h-11.4V12.1H443z"/></g><g fill="#f2631c"><path d="M306.7 53.8h3.7c1.2 0 2.1.4 2.8 1 .5.5.7 1.1.7 1.9 0 1.6-1 2.4-2 2.7 1.3.3 2.5 1.2 2.5 2.7 0 1.9-1.5 3.1-3.9 3.1h-3.8V53.8zm6.4 2.9c0-1.3-1-2.1-2.7-2.1h-2.9v4.5h2.8c1.7 0 2.8-.8 2.8-2.4zm-2.7 3.1h-2.8v4.6h3c1.9 0 3.1-.9 3.1-2.3-.1-1.4-1.2-2.3-3.3-2.3zm20.2-6h.8v11.4h-.8V53.8z"/><use xlink:href="#I"/><path d="M373.2 54.6h-3.3v-.7h7.5v.7H374v10.6h-.8V54.6zm20-.8h3.8c1.3 0 2.3.4 2.9 1s.9 1.3.9 2.2c0 1.8-1.2 2.9-2.9 3.2l3.3 4.8h-1l-3.1-4.7h-3V65h-.8V53.8zm3.5 6c2.1 0 3.3-1 3.3-2.6s-1.2-2.5-3.1-2.5H394v5.2h2.7zm19.9-.2v-.1c0-3.3 1.9-5.8 4.8-5.8s4.8 2.5 4.8 5.8v.1c0 3.3-1.9 5.8-4.8 5.8s-4.8-2.5-4.8-5.8zm8.8 0v-.1c0-2.9-1.7-5.1-4-5.1s-4 2.1-4 5v.1c0 2.9 1.7 5.1 4 5.1s4-2.1 4-5z"/></g><use xlink:href="#J" fill="#fff"/><defs><path id="g" d="M342.2 110.8h11.4v33.5h-11.4v-4h-.1c-2.5 3-5.9 4.7-9.9 4.7-6.7 0-10-4.7-10-11.4v-22.8h11.4v20.1c0 3.3 1.7 4.7 4 4.7 1.7 0 3.3-.7 4.7-1.3v-23.5z"/></defs><clipPath id="h"><use xlink:href="#g"/></clipPath><g clip-path="url(#h)"><path fill="#fd713c" d="M301.8 94.3h60.4v60.4h-60.4z"/></g><g clip-path="url(#h)" fill="#fff0ee"><use xlink:href="#G" y="98.8"/><path d="M298.6 141.4l-2-.2c1.1-9.3 2.8-17.3 5.2-23.6 3-7.9 6.9-13.1 11.6-15.5 5-2.5 10.8-2 17.3 1.7 11 6.2 21.3 8.2 28 8.8 7.2.6 11.9-.2 12-.2l.4 2c-.2 0-4.9.9-12.4.3-6.9-.6-17.5-2.6-28.8-9-5.9-3.3-11.1-3.9-15.5-1.7-10.7 5.3-14.5 25.7-15.8 37.4z"/><use xlink:href="#K"/><path d="M299.7 152.7l-1.9-.2c2.5-21.5 8-34.7 16.5-39.2 4.9-2.6 10.8-2.2 17.4 1.2 11.4 5.8 21.3 6.1 27.6 5.2 6.9-.9 11.1-3.2 11.2-3.3l.9 1.6c-.2.1-4.5 2.5-11.7 3.5-6.6.9-17 .7-28.8-5.4-6-3.1-11.3-3.5-15.6-1.2-10 5.3-14 23.5-15.6 37.8z"/><path d="M300.2 158.3l-1.8-.2c2.5-21.5 8-34.7 16.3-39.3 4.9-2.7 10.7-2.3 17.4.9 11.5 5.7 21.3 5 27.5 3.5 6.7-1.7 10.7-4.7 10.8-4.8l1.1 1.4c-.2.1-4.3 3.3-11.4 5.1-6.5 1.6-16.7 2.4-28.8-3.6-6.1-3-11.4-3.3-15.7-1-7.8 4.4-13 17.2-15.4 38z"/><path d="M300.7 164l-1.8-.2c2.5-21.8 7.8-34.7 16.1-39.3 4.9-2.7 10.7-2.5 17.4.7 11.8 5.5 21.4 4 27.4 1.7 6.5-2.5 10.3-6.2 10.3-6.3l1.3 1.2c-.2.2-4.1 4.1-11 6.7-6.3 2.4-16.5 4-28.8-1.7-6.1-2.9-11.5-3.2-15.8-.7-7.5 4.2-12.6 17-15.1 37.9z"/><path d="M301.3 169.6l-1.7-.2c2.5-21.8 7.7-34.7 15.9-39.4 4.8-2.7 10.7-2.6 17.4.4 9.6 4.3 18.8 4.3 27.3-.1 6.4-3.2 9.9-7.7 10-7.8l1.4 1.1c-.2.2-3.8 4.9-10.5 8.3a30.8 30.8 0 0 1-14.1 3.4c-4.4 0-9.3-.9-14.7-3.3-6.2-2.8-11.5-3-15.9-.5-7.7 4.4-12.7 16.9-15.1 38.1z"/><path d="M301.8 175.3l-1.6-.2c1.6-13.9 5-33.2 15.7-39.4 4.8-2.8 10.7-2.7 17.4.2 9.7 4.1 18.9 3.5 27.2-1.8 6.2-4 9.6-9.3 9.7-9.4l1.4.9c-.1.2-3.6 5.6-10.1 9.8-6 3.9-16 7.4-28.8 1.9-6.3-2.7-11.6-2.8-15.9-.3-4.2 2.4-7.7 7.5-10.2 14.9-2.1 6.1-3.7 13.7-4.8 23.4z"/><use xlink:href="#H" y="98.7"/><use xlink:href="#E" x="287.4" y="98.8"/></g><g fill="#fff"><use xlink:href="#L"/><path d="M405.2 144.3h-11.4V97.4h11.4v17.4h.1c2.5-3 5.9-4.7 9.9-4.7 6.7 0 10 4.7 10 11.4v22.8h-11.4v-20.1c0-3.3-1.3-4.7-4-4.7-1.7 0-3.3.7-4.7 1.3v23.5z"/><use xlink:href="#M"/><use xlink:href="#N"/><path d="M330.6 152.6h.8V164h-.8v-11.4z"/><use xlink:href="#I" y="98.7"/><path d="M373.2 153.3h-3.3v-.7h7.5v.7H374v10.6h-.8v-10.6z"/><use xlink:href="#O"/><use xlink:href="#P"/><use xlink:href="#J" y="115.5"/><use xlink:href="#L" y="115.5"/><use xlink:href="#Q"/><use xlink:href="#M" y="115.5"/><use xlink:href="#N" y="115.5"/><path d="M330.6 268.1h.8v11.4h-.8v-11.4z"/><use xlink:href="#I" y="214.2"/><path d="M373.2 268.8h-3.3v-.7h7.5v.7H374v10.6h-.8v-10.6z"/><use xlink:href="#O" y="115.5"/><use xlink:href="#P" y="115.5"/></g><use xlink:href="#L" x="-359" y="9.9" fill="#c1c1c1"/><defs><path id="i" d="M54.9 120.7h11.4v33.5H54.9v-4h-.1c-2.5 3-5.9 4.7-9.9 4.7-6.7 0-10-4.7-10-11.4v-22.8h11.4v20.1c0 3.3 1.7 4.7 4 4.7 1.7 0 3.3-.7 4.7-1.3v-23.5z"/></defs><clipPath id="j"><use xlink:href="#i"/></clipPath><g clip-path="url(#j)"><path fill="#fd713c" d="M14.5 104.3h60.4v60.4H14.5z"/></g><g clip-path="url(#j)" fill="#fff0ee"><path d="M9.7 145.6s0-.4.1-1.2l.3-3.3.3-2.3.4-2.7 1.3-6.5c.5-2.4 1.3-4.9 2.2-7.6l1.7-4c.6-1.3 1.3-2.7 2.2-4 .4-.7.9-1.3 1.3-2l1.6-1.9c1.1-1.2 2.4-2.3 3.9-3.1a13.98 13.98 0 0 1 4.8-1.8c.4-.1.9-.1 1.3-.2h1.3c.4 0 .9 0 1.3.1s.9.1 1.3.2c1.7.3 3.3.8 4.8 1.5.8.3 1.5.7 2.2 1.1l1.1.6 4 2.4a4.67 4.67 0 0 0 1 .5c.7.4 1.4.7 2.1 1l2.1 1 8 3.2 7.4 2.2 6.4 1.4 5 .8c1.4.2 2.5.3 3.3.3s1.2.1 1.2.1-1.6.1-4.5 0L74 121c-2-.2-4.2-.6-6.6-1.1l-7.6-1.9a75.91 75.91 0 0 1-8.3-3l-4.2-1.9-1.1-.5-2.2-1.2-1-.6-1.1-.6-1-.6c-.7-.4-1.4-.7-2.1-1-1.4-.6-2.9-1.1-4.4-1.3-3-.5-6.1 0-8.6 1.5-1.3.7-2.4 1.7-3.5 2.8-.5.5-1 1.1-1.5 1.7s-.9 1.2-1.3 1.8c-1.6 2.4-2.9 5.1-3.9 7.6s-1.8 5-2.5 7.3l-.9 3.3-.7 3-.6 2.7-.5 2.3-.6 3.2c-.1.7-.1 1.1-.1 1.1zm1.5 5.7l-2-.2c1.1-9.3 2.8-17.3 5.2-23.6 3-7.9 6.9-13.1 11.6-15.5 5-2.5 10.8-2 17.3 1.7 11 6.2 21.3 8.2 28 8.8 7.2.6 11.9-.2 12-.2l.4 2c-.2 0-4.9.9-12.4.3-6.9-.6-17.5-2.6-28.8-9-5.9-3.3-11.1-3.9-15.5-1.7-10.6 5.3-14.4 25.7-15.8 37.4z"/><use xlink:href="#K" x="-287.3" y="9.9"/><path d="M12.3 162.6l-1.9-.2c2.5-21.5 8-34.7 16.5-39.2 4.9-2.6 10.8-2.2 17.4 1.2 11.4 5.8 21.3 6.1 27.6 5.2 6.9-.9 11.1-3.2 11.2-3.3l.9 1.7c-.2.1-4.5 2.5-11.7 3.5-6.6.9-17 .7-28.8-5.4-6-3.1-11.3-3.5-15.6-1.2-9.9 5.2-13.9 23.4-15.6 37.7z"/><path d="M12.9 168.3l-1.8-.2c2.5-21.5 8-34.7 16.3-39.3 4.9-2.7 10.7-2.3 17.4.9 11.5 5.7 21.3 5 27.5 3.5 6.7-1.7 10.7-4.7 10.8-4.8l1.1 1.4c-.2.1-4.3 3.3-11.4 5.1-6.5 1.6-16.7 2.4-28.8-3.6-6.1-3-11.4-3.3-15.7-1-7.9 4.3-13 17.1-15.4 38z"/><use xlink:href="#D" y="108.7"/><path d="M14 179.5l-1.7-.2c2.5-21.8 7.7-34.7 15.9-39.4 4.8-2.7 10.7-2.6 17.4.4 9.6 4.3 18.8 4.3 27.3-.1 6.4-3.2 9.9-7.7 10-7.8l1.4 1.1c-.2.2-3.8 4.9-10.5 8.3a30.8 30.8 0 0 1-14.1 3.4c-4.4 0-9.3-.9-14.7-3.3-6.2-2.8-11.5-3-15.9-.5-7.8 4.4-12.7 16.9-15.1 38.1z"/><path d="M14.5 185.2l-1.6-.2c1.6-13.9 5-33.2 15.7-39.4 4.8-2.8 10.7-2.7 17.4.2 9.7 4.1 18.9 3.5 27.2-1.8 6.2-4 9.6-9.3 9.7-9.4l1.4.9c-.1.2-3.6 5.6-10.1 9.8-6.1 3.9-16 7.4-28.8 1.9-6.3-2.7-11.6-2.8-15.9-.3-4.2 2.4-7.7 7.5-10.2 14.9-2.2 6.1-3.7 13.7-4.8 23.4z"/><path d="M15 190.8l-1.6-.2c1.1-10 2.6-17.5 4.7-23.6 2.7-8 6.2-13.2 10.8-15.9 4.8-2.8 10.6-2.8 17.4-.1 9.9 4 19 2.8 27.1-3.5 6.1-4.8 9.2-10.8 9.3-10.9l1.4.7c-.1.3-3.4 6.4-9.7 11.4-4 3.1-9.8 6.2-17.1 6.2-3.5 0-7.4-.7-11.6-2.4-6.3-2.6-11.7-2.6-16 0-9.9 5.9-13.1 24.7-14.7 38.3z"/><use xlink:href="#E" y="108.7"/></g><g fill="#c1c1c1"><use xlink:href="#L" x="-287.3" y="9.9"/><use xlink:href="#Q" x="-287.3" y="-105.6"/><path d="M155.7 108.7v10h-11.4v-10h11.4zm0 12v33.5h-11.4v-33.5h11.4zM19.4 162.5h3.7c1.2 0 2.1.4 2.8 1 .5.5.7 1.1.7 1.9 0 1.6-1 2.4-2 2.7 1.3.3 2.5 1.2 2.5 2.7 0 1.9-1.5 3.1-3.9 3.1h-3.8v-11.4zm6.4 2.9c0-1.3-1-2.1-2.7-2.1h-2.9v4.5H23c1.7 0 2.8-.9 2.8-2.4zm-2.7 3.1h-2.8v4.6h3c1.9 0 3.1-.9 3.1-2.3-.1-1.5-1.3-2.3-3.3-2.3zm20.2-6h.8v11.4h-.8v-11.4zm16.9 10l.5-.6c1 1 2 1.5 3.3 1.5 1.5 0 2.6-1 2.6-2.2 0-1.1-.5-1.8-2.7-2.5-2.5-.9-3.3-1.8-3.3-3.3 0-1.6 1.4-2.9 3.3-2.9 1.3 0 2.3.4 3.3 1.2l-.5.6c-.9-.8-1.8-1.1-2.8-1.1-1.5 0-2.5.9-2.5 2.1 0 1.1.5 1.8 2.8 2.6 2.4.9 3.2 1.8 3.2 3.2 0 1.7-1.4 3-3.4 3-1.5-.1-2.7-.6-3.8-1.6zm25.7-9.3h-3.3v-.7H90v.7h-3.3v10.6h-.8v-10.6zm20-.7h3.8c1.3 0 2.3.4 2.9 1s.9 1.3.9 2.2c0 1.8-1.2 2.9-2.9 3.2l3.3 4.8h-1l-3.1-4.7h-3v4.7h-.8v-11.2zm3.5 6c2.1 0 3.3-1 3.3-2.6s-1.2-2.5-3.1-2.5h-2.9v5.2h2.7zm19.9-.3v-.1c0-3.3 1.9-5.8 4.8-5.8s4.8 2.5 4.8 5.8v.1c0 3.3-1.9 5.8-4.8 5.8s-4.8-2.4-4.8-5.8zm8.7 0v-.1c0-2.9-1.7-5.1-4-5.1s-4 2.1-4 5v.1c0 2.9 1.7 5.1 4 5.1 2.4.1 4-2 4-5z"/></g><g fill="#fff"><use xlink:href="#R"/><use xlink:href="#S"/><use xlink:href="#T"/><use xlink:href="#U"/><use xlink:href="#V"/><use xlink:href="#W"/><use xlink:href="#X"/><use xlink:href="#Y"/><path d="M354.6 259.3c-1 .3-1.9.5-2.8.5h2.8v-.5zm0-32.9v-.6h-4.8c.9 0 3.8.5 4.8.6z"/><use xlink:href="#Z"/><use xlink:href="#a"/><use xlink:href="#b"/><use xlink:href="#c"/></g><g fill="#c1c1c1"><use xlink:href="#J" x="-287" y="115.5"/><use xlink:href="#L" x="-287" y="115.5"/><use xlink:href="#Q" x="-287"/><path d="M156 214.2v10h-11.4v-10H156zm0 12.1v33.5h-11.4v-33.5H156z"/><use xlink:href="#N" x="-287" y="115.5"/><path d="M43.6 268.1h.8v11.4h-.8v-11.4z"/><use xlink:href="#I" x="-287" y="214.2"/><path d="M86.2 268.8h-3.3v-.7h7.5v.7H87v10.6h-.8v-10.6zm20-.7h3.8c1.3 0 2.3.4 2.9 1s.9 1.3.9 2.2c0 1.8-1.2 2.9-2.9 3.2l3.3 4.8h-1l-3.1-4.7h-3v4.7h-.8v-11.2zm3.5 5.9c2.1 0 3.3-1 3.3-2.6s-1.2-2.5-3.1-2.5H107v5.2h2.7z"/><use xlink:href="#P" x="-287" y="115.5"/><use xlink:href="#R" x="-287"/><use xlink:href="#S" x="-287"/><use xlink:href="#T" x="-287"/><use xlink:href="#U" x="-287"/><use xlink:href="#V" x="-287"/><use xlink:href="#W" x="-287"/><use xlink:href="#X" x="-287"/><use xlink:href="#Y" x="-287"/><path d="M67.6 259.3c-1 .3-1.9.5-2.8.5h2.8v-.5zm0-32.4v-1.1h-4.8c.9 0 3.8.9 4.8 1.1z"/><use xlink:href="#Z" x="-287"/><use xlink:href="#a" x="-287"/><use xlink:href="#b" x="-287"/><use xlink:href="#c" x="-287"/></g></svg>