<?xml version="1.0" standalone="no"?>
<!DOCTYPE svg PUBLIC "-//W3C//DTD SVG 20010904//EN"
 "http://www.w3.org/TR/2001/REC-SVG-20010904/DTD/svg10.dtd">
<svg version="1.0" xmlns="http://www.w3.org/2000/svg"
 width="512.000000pt" height="512.000000pt" viewBox="0 0 512.000000 512.000000"
 preserveAspectRatio="xMidYMid meet">
<metadata>
Created by potrace 1.11, written by Peter Selinger 2001-2013
</metadata>
<g transform="translate(0.000000,512.000000) scale(0.100000,-0.100000)"
fill="#000000" stroke="none">
<path d="M217 5113 c-4 -3 -7 -30 -7 -59 0 -61 -5 -59 120 -69 113 -10 329
-51 474 -91 276 -76 497 -165 866 -349 l235 -117 3 213 c1 117 -1 216 -5 220
-5 4 -121 63 -259 133 l-251 126 -585 0 c-322 0 -588 -3 -591 -7z"/>
<path d="M4140 5116 c0 -11 473 -113 743 -160 l37 -7 0 86 0 85 -390 0 c-214
0 -390 -2 -390 -4z"/>
<path d="M3220 4866 l0 -193 128 -36 c452 -129 949 -225 1396 -272 82 -8 155
-15 163 -15 11 0 13 26 11 147 l-3 147 -209 38 c-413 75 -845 182 -1262 313
-115 36 -212 65 -216 65 -5 0 -8 -87 -8 -194z"/>
<path d="M210 4446 l0 -265 43 -5 c23 -3 82 -8 131 -11 194 -13 487 -76 726
-155 177 -59 354 -133 587 -244 111 -53 205 -96 210 -96 4 0 7 100 6 222 l-2
223 -33 14 c-18 8 -161 77 -317 154 -306 149 -455 214 -621 272 -205 71 -465
130 -662 150 l-68 7 0 -266z"/>
<path d="M3220 4161 l0 -208 53 -12 c545 -130 932 -184 1495 -207 l152 -6 0
161 c0 159 0 161 -22 165 -13 2 -113 14 -223 25 -432 45 -987 153 -1387 270
l-68 20 0 -208z"/>
<path d="M210 3627 l0 -274 163 -6 c445 -17 858 -133 1460 -411 l77 -35 0 232
0 233 -67 29 c-38 16 -142 64 -233 108 -412 197 -713 302 -1025 357 -100 18
-296 40 -352 40 l-23 0 0 -273z"/>
<path d="M3222 3444 l3 -219 140 -27 c411 -78 664 -102 1115 -102 201 -1 382
3 403 7 l37 8 0 168 0 168 -207 6 c-322 11 -624 41 -960 98 -144 24 -425 82
-511 105 l-22 6 2 -218z"/>
<path d="M210 2806 l0 -276 123 0 c455 0 924 -111 1463 -346 56 -24 106 -44
110 -44 5 0 7 106 4 236 l-5 236 -155 70 c-285 128 -434 189 -582 239 -293 98
-545 147 -795 156 l-163 6 0 -277z"/>
<path d="M3220 2720 l0 -227 43 -7 c302 -49 483 -66 777 -73 303 -7 674 16
853 53 l27 6 0 180 0 181 -65 -7 c-103 -10 -658 -8 -811 4 -250 19 -562 62
-761 104 l-63 13 0 -227z"/>
<path d="M210 1985 l0 -287 133 7 c139 7 363 -6 527 -30 336 -50 630 -138
1064 -319 651 -271 1283 -399 1901 -383 362 9 700 62 1017 158 l68 21 0 199
c0 153 -3 199 -12 199 -7 0 -32 -5 -54 -10 -95 -22 -349 -60 -489 -74 -410
-41 -807 -28 -1235 40 l-105 17 -110 -36 c-166 -53 -255 -69 -390 -70 -137 0
-215 16 -312 64 -110 55 -214 186 -253 315 l-12 42 -212 91 c-551 237 -896
325 -1328 338 l-198 6 0 -288z"/>
<path d="M3220 1986 l0 -234 28 -6 c72 -15 296 -37 472 -46 325 -17 711 13
1041 80 80 17 148 30 152 30 4 0 7 88 7 196 l0 196 -27 -6 c-61 -13 -289 -35
-473 -47 -316 -19 -724 1 -1054 51 -71 11 -133 20 -137 20 -5 0 -9 -105 -9
-234z"/>
<path d="M291 1453 l-64 -4 7 -72 c9 -105 40 -246 82 -377 l36 -116 192 0
c448 -2 853 -90 1406 -306 256 -101 428 -157 644 -214 l170 -43 80 57 c45 31
144 119 220 195 77 75 143 137 148 137 4 0 8 -103 8 -229 l0 -230 58 -8 c92
-13 574 -9 707 5 151 17 355 54 510 93 118 30 370 110 407 130 17 9 18 26 18
214 0 113 -3 205 -7 205 -5 0 -70 -16 -145 -35 -166 -42 -354 -77 -543 -102
-114 -15 -207 -18 -505 -18 -321 1 -385 3 -530 23 -513 69 -866 169 -1470 414
-533 217 -984 306 -1429 281z"/>
<path d="M512 640 l-33 -5 52 -75 c178 -254 469 -439 804 -511 227 -48 536
-48 775 1 114 24 316 85 325 100 3 4 -9 12 -27 15 -75 16 -326 102 -518 177
-374 146 -650 226 -928 268 -144 22 -394 38 -450 30z"/>
<path d="M4795 185 c-55 -19 -129 -43 -165 -54 l-65 -19 178 -1 177 -1 0 55
c0 38 -4 55 -12 54 -7 0 -58 -16 -113 -34z"/>
</g>
</svg>
