<svg xmlns="http://www.w3.org/2000/svg" xmlns:xlink="http://www.w3.org/1999/xlink"><defs><path id="B" d="M151 210c-41.422 0-75 33.578-75 75s33.578 75 75 75 75-33.578 75-75-33.578-75-75-75zm0 95c-11.047 0-20-8.953-20-20s8.953-20 20-20 20 8.953 20 20-8.953 20-20 20zm0 0"/><path id="C" d="M151 220c-35.898 0-65 29.102-65 65s29.102 65 65 65 65-29.102 65-65-29.102-65-65-65zm0 85c-11.047 0-20-8.953-20-20s8.953-20 20-20 20 8.953 20 20-8.953 20-20 20zm0 0"/><path id="B" d="M66 267c-16.57 0-30-13.43-30-30v-40c0-16.57 13.43-30 30-30s30 13.43 30 30v40c0 16.57-13.43 30-30 30zm120-30v-40c0-16.57-13.43-30-30-30s-30 13.43-30 30v40c0 16.57 13.43 30 30 30s30-13.43 30-30zm90 0v-40c0-16.57-13.43-30-30-30s-30 13.43-30 30v40c0 16.57 13.43 30 30 30s30-13.43 30-30zm0 0"/></defs><symbol id="additionally" viewBox="0 0 512 512"><path d="M512 256c0 141.387-114.613 256-256 256S0 397.387 0 256 114.613 0 256 0s256 114.613 256 256zm0 0" fill="#016a74"/><path d="M384.832 101l-70 340h-210l-70-340h101.27c4.586 0 8.543 3.13 9.695 7.566C149.148 121.473 160.88 131 174.832 131h70c13.957 0 25.687-9.527 29.04-22.434 1.152-4.437 5.11-7.566 9.69-7.566zm0 0" fill="#dca050"/><path d="M70 101l70 340h-35.168l-70-340zm0 0" fill="#ce9047"/><path d="M395.066 134.992c.637 3.102-1.73 6.008-4.898 6.008H29.496c-3.168 0-5.535-2.906-4.898-6.008l14.414-70A5 5 0 0 1 43.906 61h331.852a5 5 0 0 1 4.895 3.992zm0 0" fill="#f8bb5e"/><path d="M390.168 141H249.832v5a5 5 0 0 1-5 5h-70a5 5 0 0 1-5-5v-5H58.867L75.34 61h300.418a5 5 0 0 1 4.895 3.992l14.414 70c.637 3.102-1.73 6.008-4.898 6.008zm0 0" fill="#fbc56d"/><path d="M420 295v20a5 5 0 0 1-5 5h-6.19l-17.082 81.344A23.49 23.49 0 0 1 368.742 420H278.1c-11.277 0-20.965-8.02-23.07-19.102L239.648 320H235a5 5 0 0 1-5-5v-20a5 5 0 0 1 5-5h180a5 5 0 0 1 5 5zm0 0" fill="#b4d2d7"/><path d="M355 400c13.605 0 26.61-2.6 38.54-7.3l-1.812 8.645C389.44 412.215 379.855 420 368.742 420H278.1c-11.277 0-20.965-8.02-23.07-19.102L239.648 320h13.375c11.215 45.914 52.605 80 101.977 80zm0 0" fill="#9bb9c3"/><path d="M415 320H255a5 5 0 0 1-5-5v-20a5 5 0 0 1 5-5h160a5 5 0 0 1 5 5v20a5 5 0 0 1-5 5zm0 0" fill="#e1ebf0"/><path d="M358.332 465.207a4.79 4.79 0 0 1-4.793 4.793h-11.5L84.03 462.738c-6.69-.187-11.992-4.582-11.992-9.937V447.2c0-2.816 1.477-5.36 3.84-7.172-1.996-1.648-3.277-3.867-3.4-6.36l-.293-5.594c-.277-5.348 4.785-10.012 11.457-10.55l257.273-20.754 11.102-.582a6.014 6.014 0 0 1 6.328 6.004v63.016zm0 0" fill="#ffe899"/><path d="M342.203 421.535l-270.027 6.54c-.277-5.348 4.785-10.012 11.457-10.55l257.273-20.754 11.543-.605a5.592 5.592 0 0 1 5.887 5.582v18.94zm16.13 14.375l-15.332.805-258.035 6.25c-3.57.086-6.8-1.055-9.086-2.937-2.363 1.813-3.84 4.355-3.84 7.172l270 7.602h16.293zm0 0" fill="#fff2b4"/><path d="M483.297 467.484c-.762 1.52-2.598 2.516-4.645 2.516H352.04l.62-40-1.766-33.754 126.44-6.63c2.04-.105 3.93.793 4.766 2.27 6.19 10.918 6.848 23.422 1.832 34.922-.68 1.56-2.465 2.648-4.504 2.754l-.004.004v.48c1.723.215 3.207 1.14 3.87 2.47 5.613 11.223 5.613 23.746 0 34.97zm0 0" fill="#fc544d"/><path d="M486.72 442.398a40.014 40.014 0 0 1-3.422 9.887c-.762 1.52-2.598 2.516-4.645 2.516H352.277l.383-24.8.324 6.19 118.12-6.19h7.547c2.047 0 3.883.996 4.645 2.516a39.946 39.946 0 0 1 3.422 9.883zm-8.086-28.012c2.043-.11 3.824-1.2 4.504-2.754a39.891 39.891 0 0 0 2.898-10.055 39.929 39.929 0 0 0-3.934-9.69c-.836-1.477-2.727-2.375-4.766-2.27l-126.44 6.63 1.297 24.766zm0 0" fill="#fd6c55"/></symbol><symbol id="arrow-down-fill" viewBox="0 0 255 255"><path d="M0 63.75l127.5 127.5L255 63.75z"/></symbol><symbol id="arrow-down" viewBox="0 0 129 129"><path d="M121.3 34.6c-1.6-1.6-4.2-1.6-5.8 0l-51 51.1-51.1-51.1c-1.6-1.6-4.2-1.6-5.8 0s-1.6 4.2 0 5.8l53.9 53.9c.8.8 1.8 1.2 2.9 1.2 1 0 2.1-.4 2.9-1.2l53.9-53.9c1.7-1.6 1.7-4.2.1-5.8z"/></symbol><symbol id="arrow-left" viewBox="0 0 451.847 451.847"><path d="M97.14 225.92c0-8.095 3.09-16.192 9.26-22.366L300.69 9.27c12.36-12.36 32.397-12.36 44.75 0 12.354 12.354 12.354 32.388 0 44.748L173.525 225.92l171.903 171.91c12.354 12.354 12.354 32.39 0 44.744-12.354 12.365-32.386 12.365-44.745 0l-194.3-194.28c-6.167-6.177-9.252-14.274-9.252-22.372z"/></symbol><symbol id="arrow-right" viewBox="0 0 451.846 451.847"><path d="M345.44 248.292l-194.287 194.28c-12.36 12.365-32.397 12.365-44.75 0-12.354-12.354-12.354-32.39 0-44.744l171.914-171.91L106.41 54.017c-12.354-12.36-12.354-32.394 0-44.748s32.39-12.36 44.75 0l194.287 194.284a31.53 31.53 0 0 1 9.262 22.366c0 8.1-3.09 16.196-9.267 22.373z"/></symbol><symbol id="dessert" viewBox="0 0 512 512"><path d="M61.805 422.785C23.648 378.406.438 320.813.008 257.797-.97 116.06 114.258 0 256 0c141.387 0 256 114.617 256 256 0 63.434-23.082 121.473-61.297 166.19-6.81 7.97-16.727 12.602-27.203 12.602H87.898c-10.035 0-19.55-4.398-26.094-12.008zm0 0" fill="#016a74"/><path d="M451 60v361.848C404.043 477.004 334.113 512 256 512s-148.043-34.996-195-90.152V60a10 10 0 0 1 10-10h165V40c0-11.047 8.953-20 20-20s20 8.953 20 20v10h165a10 10 0 0 1 10 10zm0 0" fill="#dca050"/><path d="M256 480c-60.812 0-116.945-20.012-162.195-53.793 43.887 49.262 106.508 81.47 176.695 85.387A258.59 258.59 0 0 1 256 512c-78.113 0-148.043-34.996-195-90.152V60a10 10 0 0 1 10-10h29a10 10 0 0 0-10 10v144.94a10 10 0 0 0 10 10h326.7a5.3 5.3 0 0 1 5.301 5.301V423c-47.39 40.406-108.84 57-176 57zm0 0" fill="#ce9047"/><use xlink:href="#B" fill="#fdd78d"/><path d="M130.25 357.07C98.926 348.066 76 319.22 76 285s22.926-63.066 54.25-72.07C109.086 227.957 95 254.61 95 285s14.086 57.043 35.25 72.07zm0 0" fill="#fdcb6b"/><use xlink:href="#C" fill="#fff5f5"/><path d="M95 285c0 18.605 5.285 35.8 14.234 49.793C95.035 322.87 86 304.992 86 285s9.035-37.87 23.234-49.793C100.285 249.2 95 266.395 95 285zm0 0" fill="#fdcdc7"/><use xlink:href="#B" x="105" fill="#fdd78d"/><path d="M235.25 357.07C203.926 348.066 181 319.22 181 285s22.926-63.066 54.25-72.07C214.086 227.957 200 254.61 200 285s14.086 57.043 35.25 72.07zm0 0" fill="#fdcb6b"/><use xlink:href="#C" x="105" fill="#fd7c66"/><path d="M292.902 293.953C297.293 290.352 300 285.43 300 280c0-11.047-11.19-20-25-20l-.437.004c-3.992.055-7.77-1.547-10.63-4.336A19.89 19.89 0 0 0 250 250a19.85 19.85 0 0 0-11.434 3.602c-5.023 3.516-10.39 6.477-15.97 9.03C215.07 266.078 210 272.566 210 280c0 6.418 3.777 12.125 9.648 15.78a22.5 22.5 0 0 1 10.488 16.559c.008.086.02.172.03.258 1.16 9.043 8.508 16.28 17.57 17.277 7.156.785 13.656-2.215 17.762-7.242 4.133 5.063 10.688 8.066 17.902 7.227 9.07-1.06 16.375-8.355 17.453-17.422.898-7.566-2.45-14.395-7.953-18.484zM256 305c-11.047 0-20-8.953-20-20s8.953-20 20-20 20 8.953 20 20-8.953 20-20 20zm-56-20c0 18.605 5.285 35.8 14.234 49.793C200.035 322.87 191 304.992 191 285s9.035-37.87 23.234-49.793C205.285 249.2 200 266.395 200 285zm0 0" fill="#fc544d"/><use xlink:href="#B" x="210" fill="#fdd78d"/><path d="M340.25 357.07C308.926 348.066 286 319.22 286 285s22.926-63.066 54.25-72.07C319.086 227.957 305 254.61 305 285s14.086 57.043 35.25 72.07zm0 0" fill="#fdcb6b"/><path d="M296 285c0 35.898 29.102 65 65 65s65-29.102 65-65-29.102-65-65-65-65 29.102-65 65zm85 0c0 11.047-8.953 20-20 20s-20-8.953-20-20 8.953-20 20-20 20 8.953 20 20zm0 0" fill="#2abbc7"/><path d="M319.234 235.207C310.285 249.2 305 266.395 305 285s5.285 35.8 14.234 49.793C305.035 322.87 296 304.992 296 285s9.035-37.87 23.234-49.793zM406 286v.125c-.02 6.2-3.652 11.758-9.098 14.727a40.175 40.175 0 0 0-16.05 16.05c-2.97 5.445-8.527 9.078-14.727 9.098H366c-22.988 0-41.445-19.39-39.9-42.703 1.297-19.746 17.246-35.777 36.98-37.19.137-.012.273-.02.4-.027 7.246-.445 14.133 3.34 17.72 9.652a40.199 40.199 0 0 0 15.7 15.422c5.45 2.965 9.082 8.523 9.102 14.727zm-25-1c0-11.047-8.953-20-20-20s-20 8.953-20 20 8.953 20 20 20 20-8.953 20-20zm0 0" fill="#0cabb9"/><use xlink:href="#B" y="100" fill="#fdd78d"/><use xlink:href="#C" y="100" fill="#925b44"/><path d="M130.25 457.07C98.926 448.066 76 419.22 76 385s22.926-63.066 54.25-72.07C109.086 327.957 95 354.61 95 385s14.086 57.043 35.25 72.07zm0 0" fill="#fdcb6b"/><path d="M95 385c0 18.605 5.285 35.8 14.234 49.793C95.035 422.87 86 404.992 86 385s9.035-37.87 23.234-49.793C100.285 349.2 95 366.395 95 385zm86 10a4.185 4.185 0 0 0-4.152 4.71c.363 2.945-.582 6.023-2.848 8.29s-5.344 3.21-8.29 2.848A4.186 4.186 0 0 0 161 415c0 5.742-4.84 10.355-10.664 9.98-5.316-.344-9.336-4.996-9.336-10.324v-.566c0-2.434-2.062-4.285-4.496-4.176A9.973 9.973 0 0 1 129 407a9.944 9.944 0 0 1-2.922-6.95c-.03-2.793-2.28-5.05-5.078-5.05a10 10 0 0 1-9.977-10.664c.344-5.316 4.992-9.336 10.32-9.336 2.34 0 4.227-2.06 3.86-4.367A9.968 9.968 0 0 1 128 362a9.956 9.956 0 0 1 8.293-2.844A4.19 4.19 0 0 0 141 355a10 10 0 0 1 10.668-9.977c5.313.344 9.332 4.992 9.332 10.32 0 2.605 2.102 4.797 4.707 4.738 2.633-.062 5.28.9 7.293 2.918s2.98 4.66 2.922 7.293c-.062 2.605 2.133 4.707 4.734 4.707 5.328 0 9.98 4.02 10.324 9.336.375 5.824-4.238 10.664-9.98 10.664zm-10-10c0-11.047-8.953-20-20-20s-20 8.953-20 20 8.953 20 20 20 20-8.953 20-20zm-46-45a5 5 0 1 0 0-10 5 5 0 1 0 0 10zm50 10a5 5 0 1 0 0-10 5 5 0 1 0 0 10zm-60 10a5 5 0 1 0 0-10 5 5 0 1 0 0 10zm-10 40a5 5 0 1 0 0 10 5 5 0 1 0 0-10zm0 0" fill="#6d4336"/><path d="M135 240a5 5 0 1 1-10 0 5 5 0 1 1 10 0zm-5 15a5 5 0 1 0 0 10 5 5 0 1 0 0-10zm50-30a5 5 0 1 0 0 10 5 5 0 1 0 0-10zm-80 80a5 5 0 1 0 0 10 5 5 0 1 0 0-10zm0 0" fill="#fc544d"/><path d="M175 300a5 5 0 1 1-10 0 5 5 0 1 1 10 0zm-75-35a5 5 0 1 0 0 10 5 5 0 1 0 0-10zm10 20a5 5 0 1 0 0 10 5 5 0 1 0 0-10zm50-40a5 5 0 1 0 0 10 5 5 0 1 0 0-10zm0 0" fill="#0cabb9"/><use xlink:href="#B" x="105" y="100" fill="#fdd78d"/><use xlink:href="#C" x="105" y="100" fill="#fff2b4"/><path d="M235.25 457.07C203.926 448.066 181 419.22 181 385s22.926-63.066 54.25-72.07C214.086 327.957 200 354.61 200 385s14.086 57.043 35.25 72.07zm0 0" fill="#fdcb6b"/><path d="M230 325.426a64.552 64.552 0 0 1 10-3.437v51.047c-2.5 3.34-4 7.473-4 11.965s1.5 8.625 4 11.965v51.047a64.552 64.552 0 0 1-10-3.437zm-20 13.668c-11.738 11.758-19 27.98-19 45.906 0 14.523 4.766 27.93 12.816 38.75 1.457 1.953 4.477.184 3.527-2.06C202.637 410.586 200 398.145 200 385c0-15.445 3.645-29.918 10-42.395v88.316a65.247 65.247 0 0 0 10 8.195V330.883a65.247 65.247 0 0 0-10 8.195zm40 64.988v45.633a66.22 66.22 0 0 0 6 .285c1.344 0 2.676-.055 4-.133v-45.27c-1.293.262-2.63.402-4 .402-2.1 0-4.105-.324-6-.918zm0-83.797v45.633c1.895-.594 3.9-.918 6-.918 1.37 0 2.707.14 4 .402v-45.266a64.62 64.62 0 0 0-4-.137 66.22 66.22 0 0 0-6 .285zm20 50.445c3.7 3.63 6 8.68 6 14.27s-2.3 10.64-6 14.27v49.203a64.32 64.32 0 0 0 10-3.07v-120.81a64.37 64.37 0 0 0-10-3.066zm20-41.13v110.797a65.22 65.22 0 0 0 10-7.566v-95.664a64.97 64.97 0 0 0-10-7.566zm0 0" fill="#ffe899"/><use xlink:href="#B" x="210" y="100" fill="#fdd78d"/><use xlink:href="#C" x="210" y="100" fill="#925b44"/><path d="M340.25 457.07C308.926 448.066 286 419.22 286 385s22.926-63.066 54.25-72.07C319.086 327.957 305 354.61 305 385s14.086 57.043 35.25 72.07zm0 0" fill="#fdcb6b"/><path d="M305 385c0 18.605 5.285 35.8 14.234 49.793C305.035 422.87 296 404.992 296 385s9.035-37.87 23.234-49.793C310.285 349.2 305 366.395 305 385zm0 0" fill="#6d4336"/><path d="M350 340a5 5 0 1 1-10 0 5 5 0 1 1 10 0zm-5 75a5 5 0 1 0 0 10 5 5 0 1 0 0-10zm40-10a5 5 0 1 0 0 10 5 5 0 1 0 0-10zm-70-10a5 5 0 1 0 0 10 5 5 0 1 0 0-10zm75-35a5 5 0 1 0 0 10 5 5 0 1 0 0-10zm-15-25a5 5 0 1 0 0 10 5 5 0 1 0 0-10zm0 0" fill="#fd8e82"/><path d="M320 370a5 5 0 1 1-10 0 5 5 0 1 1 10 0zm10 10a5 5 0 1 0 0 10 5 5 0 1 0 0-10zm20-30a5 5 0 1 0 0 10 5 5 0 1 0 0-10zm55 35a5 5 0 1 0 0 10 5 5 0 1 0 0-10zm0-40a5 5 0 1 0-10 0 5 5 0 1 0 10 0zm0 0" fill="#fdbf43"/><path d="M451 420v1.848C404.043 477.004 334.113 512 256 512s-148.043-34.996-195-90.152V420h170.508a4.99 4.99 0 0 1 4.891 4c1.855 9.13 9.926 16 19.602 16s17.746-6.87 19.602-16a4.99 4.99 0 0 1 4.891-4zm0 0" fill="#fbc56d"/></symbol><symbol id="drinks" viewBox="0 0 512 512"><path d="M512 256c0 141.387-114.613 256-256 256S0 397.387 0 256 114.613 0 256 0s256 114.613 256 256zm0 0" fill="#016a74"/><path d="M255.633 270.512l-14.14-14.145a5 5 0 0 1 0-7.07l237.805-237.81a5 5 0 0 1 7.07 0l14.14 14.145a5 5 0 0 1 0 7.07l-237.805 237.81a5.003 5.003 0 0 1-7.07 0zm0 0" fill="#49cb5c"/><path d="M253.156 268.035a8.505 8.505 0 0 1 0-12.02L471.87 37.3a8.502 8.502 0 0 1 12.023 12.02L265.18 268.035a8.502 8.502 0 0 1-12.023 0zm0 0" fill="#73d37a"/><path d="M420.473 283.863c-41.008 41.004-117.3 31.19-170.414-21.922s-62.926-129.406-21.922-170.414c32.078-32.074 85.746-33.047 133.02-6.53a19.747 19.747 0 0 1 6.94 6.566c6.504 10.133 14.31 19.883 23.383 28.957s18.824 16.88 28.957 23.383a19.737 19.737 0 0 1 6.566 6.94c26.516 47.273 25.543 100.94-6.53 133.02zm0 0" fill="#738c96"/><g fill="#87a0af"><path d="M245.6 245.195c-22.676-46.305-19.25-98.13 12.953-130.332 27.828-27.828 70.313-34.16 111.227-20.734 3.543 5.3 7.457 10.48 11.71 15.512l-.152-.18zm181.414-94.352a19.747 19.747 0 0 0-6.566-6.94 171.42 171.42 0 0 1-17.898-13.23L261.78 271.43l2.61 3.363c51.77 41.574 118.637 46.512 156.078 9.07 32.078-32.078 33.05-85.746 6.535-133.02zm0 0"/><path d="M427.762 303.44l-14.145 14.145c-3.902 3.902-10.234 3.902-14.14 0l-1.937-1.937-235.3 178.633c-65.965-25.977-118.543-78.555-144.52-144.52l178.633-235.3-1.937-1.937c-3.902-3.902-3.902-10.234 0-14.14l14.145-14.14a10 10 0 0 1 14.141 0L427.762 289.3c3.902 3.906 3.902 10.238 0 14.14zm0 0"/></g><path d="M307.55 225.66l89.988 89.988-235.3 178.633-3.477-1.398c-82.316-33.824-109.6-137.035-55.777-207.918l113.87-150 69.484 69.484-84.855 84.852 21.215 21.215zm-7.07-35.355l14.14-14.14-71.418-71.418a10 10 0 0 0-14.141 14.141zm127.28 98.996l-91.926-91.922-14.14 14.14 91.922 91.922c3.906 3.906 10.238 3.906 14.145 0s3.902-10.234 0-14.14zm0 0" fill="#9bb9c3"/><path d="M51.137 353.25l118.4-155.973c10.07-13.27 29.54-14.594 41.316-2.816a27.477 27.477 0 0 1 7.836 16.02l4.977 39.82a187.866 187.866 0 0 0 53.578 109.547 6 6 0 0 1-.617 9.02l-119.31 90.578a12.003 12.003 0 0 1-15.742-1.074l-89.38-89.38c-4.238-4.242-4.7-10.965-1.07-15.742zm0 0" fill="#fc9302"/><path d="M49.414 355.527l92.3-121.582c2.2-2.895 6.45-3.187 9.023-.613a187.86 187.86 0 0 0 109.543 53.574l39.82 4.98a27.454 27.454 0 0 1 16.02 7.836c11.777 11.777 10.453 31.242-2.812 41.313L155.035 461.19a10.01 10.01 0 0 1-12.09.004 484.376 484.376 0 0 1-92.328-92l-1.187-1.55a10 10 0 0 1-.016-12.117zm0 0" fill="#fcb30b"/></symbol><symbol id="facebook" viewBox="0 0 512 512"><path d="M288 176v-64c0-17.664 14.336-32 32-32h32V0h-64c-53.024 0-96 42.976-96 96v80h-64v80h64v256h96V256h64l32-80h-96z"/></symbol><symbol id="instagram" viewBox="0 0 510 510"><path d="M459 0H51C22.95 0 0 22.95 0 51v408c0 28.05 22.95 51 51 51h408c28.05 0 51-22.95 51-51V51c0-28.05-22.95-51-51-51zM255 153c56.1 0 102 45.9 102 102s-45.9 102-102 102-102-45.9-102-102 45.9-102 102-102zM63.75 459C56.1 459 51 453.9 51 446.25V229.5h53.55C102 237.15 102 247.35 102 255c0 84.15 68.85 153 153 153s153-68.85 153-153c0-7.65 0-17.85-2.55-25.5H459v216.75c0 7.65-5.1 12.75-12.75 12.75H63.75zM459 114.75c0 7.65-5.1 12.75-12.75 12.75h-51c-7.65 0-12.75-5.1-12.75-12.75v-51c0-7.65 5.1-12.75 12.75-12.75h51C453.9 51 459 56.1 459 63.75v51z"/></symbol><symbol id="life" viewBox="0 0 554.244 289.314"><path d="M132.378 13.913H86.742l-.95 32.25h45.848l.738-32.25m-79.258 0H7.905C8.116 44.794 5.48 116.885 0 230.08l43.424.2c0-27.93 3.162-100.022 9.696-216.38m76.307 56.495h-44.16C84 141.548 82 194.773 79.364 230.08l46.586.2c-.316-14.228.843-67.453 3.477-159.887m24.03-.947l-5.48 32.462 22.66-.2-4.005 128.374 44.9.2 1.16-128.163h29.5l6.535-33h-36.784v-4.954c0-13.5 1.686-21.5 4.954-23.714 4.005-3.058 16.864-4.32 38.47-4.005l6.007-30.25c-17.917-.844-30.986-.844-39.208 0C206.472 7.27 194.352 11.59 185.92 19.6c-8.116 7.694-12.542 22.766-13.386 45.1v4.743H153.46m233.558 24.78c-13.913-17.496-33.832-26.244-59.76-26.244-21.185-.42-39.42 5.375-55.016 17.285-20.342 15.6-31.515 37.205-33.516 65.03-1.793 24.873 4.53 45.004 19.182 60.18 13.5 13.913 32.673 21.3 57.44 22.133 22.03.632 42.054-1.265 60.288-5.48l6.43-33c-14.65 6.43-33.305 9.697-55.754 9.697-20.764 0-33.622-6.008-38.893-17.918-3.16-6.745-4.742-13.806-4.742-21.3l.95-9.17H401.46l.422-3.7c1.475-23.82-3.477-43-14.86-57.546zm-88.534 9.907c6.85-7.272 16.02-10.96 27.826-10.856 11.697-.105 20.656 4.426 26.77 13.385 4.637 7.38 6.43 15.6 5.48 24.77l-.526 4.005-72.197-.316c.74-12.33 4.954-22.66 12.647-30.986m179.282 9.484l1.054-42.475h-50.38l-.95 42.475h50.275m60.286-67.77C528.248 21.5 521.187 6.22 516.972 0h-29.3c13.596 24.663 22.134 51.75 25.823 81.366 1.8 14.44 2.425 35.308 1.686 62.5-.526 34.36-7.904 69.035-22.132 103.922a355.48 355.48 0 0 1-20.026 41.526H505.6c8.75-13.28 16.547-27.087 23.187-41.526 3.163-6.85 6.114-13.807 8.748-20.87 10.54-29.195 16.126-56.387 16.654-81.577.738-36.784-4.637-69.88-16.126-99.495m-115.517 143.13l-1.054 42.158h50.8l1.054-42.158h-50.8"/></symbol><symbol id="mts" viewBox="-0.317 -0.092 258 259"><path fill="red" d="M7.957 249.734H249.4V8.305H7.957v241.43z"/><path fill="#fff" d="M128.677 33.102c34.312 0 70.978 61.342 70.978 114.463 0 41.726-24.528 77.32-70.978 77.32-46.484 0-70.948-35.595-70.948-77.32 0-53.12 36.632-114.463 70.948-114.463"/></symbol><symbol id="rolls" viewBox="0 0 512 512"><path d="M512 256c0 50.488-14.617 97.574-39.852 137.227-26.738 42.035-65.402 75.734-111.22 96.352C328.914 503.984 293.398 512 256 512 114.613 512 0 397.387 0 256S114.613 0 256 0s256 114.613 256 256zm0 0" fill="#7cbfbf"/><path d="M300.574 116.14v142.973c0 40.992-60.656 74.207-135.48 74.207-16.582 0-32.465-1.63-47.145-4.617-51.586-10.48-88.348-37.68-88.348-69.6V116.14zm0 0" fill="#3d3d3d"/><path d="M117.95 116.14v212.563c-51.586-10.48-88.348-37.68-88.348-69.6V116.14zm0 0" fill="#141318"/><path d="M300.578 116.14c0-40.988-60.656-74.21-135.484-74.21S29.605 75.152 29.605 116.14s60.66 74.21 135.488 74.21 135.484-33.227 135.484-74.21zm0 0" fill="#e6e6e6"/><path d="M236.406 116.14c0 16.73-19.184 30.992-46.16 36.563-4.945 1.023-10.148 1.742-15.55 2.14-3.133.238-6.34.355-9.602.355-12.945 0-25.078-1.89-35.535-5.184-4.21-1.336-8.152-2.895-11.766-4.648C103.06 138.22 93.78 127.77 93.78 116.14c0-17.922 22.016-33.02 52.043-37.63a125.35 125.35 0 0 1 10.48-1.148c2.875-.187 5.813-.293 8.79-.293 5.777 0 11.398.38 16.78 1.098 4.902.637 9.602 1.566 14.043 2.738 23.95 6.29 40.488 19.707 40.488 35.234zm0 0" fill="#dd3d88"/><path d="M197.016 139.234c-1.816 4.93-4.098 9.434-6.77 13.47-4.945 1.023-10.148 1.742-15.55 2.14 14.652-13.637 19.27-37.617 15.55-57.25-1.62-8.56-4.62-15.32-8.37-19.426a111.33 111.33 0 0 1 14.043 2.738c1.996 4.262 3.555 9.215 4.598 14.742 2.72 14.348 1.44 30.23-3.5 43.586zM153.44 119.4c-4.617 12.035-12.62 22.277-23.883 30.625-4.2-1.336-8.152-2.895-11.766-4.648 12.6-7.797 21.273-17.723 25.86-29.625 5.277-13.656 4.2-27.543 2.172-37.23a125.35 125.35 0 0 1 10.48-1.148c2.184 11.035 3.117 26.457-2.863 42.027zm0 0" fill="#c12038"/><path d="M472.148 273.586v119.64c-26.738 42.035-65.402 75.734-111.22 96.352-7.867.78-15.977 1.19-24.262 1.19-16.586 0-32.47-1.633-47.148-4.62-51.586-10.48-88.344-37.68-88.344-69.6V273.586zm0 0" fill="#3d3d3d"/><path d="M289.52 273.582v212.563c-51.586-10.48-88.348-37.68-88.348-69.6V273.582zm0 0" fill="#141318"/><path d="M472.152 273.582c0-40.984-60.66-74.21-135.488-74.21s-135.488 33.227-135.488 74.21 60.66 74.21 135.488 74.21 135.488-33.227 135.488-74.21zm0 0" fill="#e6e6e6"/><path d="M407.98 273.586c0 2.684-.492 5.31-1.44 7.848-1.254 3.363-3.3 6.57-6.03 9.56-3.008 3.313-6.832 6.344-11.355 9.04-13.043 7.754-31.723 12.613-52.484 12.613a141.39 141.39 0 0 1-4.098-.062c-8.62-.273-16.832-1.37-24.367-3.176-25.223-6.02-42.852-19.793-42.852-35.82 0-7.336 3.688-14.2 10.113-20.062 2.73-2.496 5.957-4.816 9.605-6.906 4.063-2.332 8.652-4.398 13.664-6.125a99.538 99.538 0 0 1 10.23-2.914c8.516-1.973 17.88-3.062 27.703-3.062a130.79 130.79 0 0 1 13.719.723c5.13.555 10.063 1.398 14.73 2.52h.012c23.645 5.64 40.625 18.105 42.64 32.86a21.59 21.59 0 0 1 .211 2.969zm0 0" fill="#dd3d88"/><path d="M332.57 312.582c-8.62-.273-16.832-1.37-24.367-3.176-13.687-11.086-21.64-23.7-26.238-34.242a94.85 94.85 0 0 1-6.5-21.641c2.73-2.496 5.957-4.816 9.605-6.906.625 5.965 2.3 14.992 6.656 24.785 8.023 18.066 21.723 31.867 40.844 41.18zm67.938-21.6c-3.008 3.313-6.832 6.344-11.355 9.04-24.7-3.93-51.2-13.227-71.473-33.195-9.812-9.664-15.633-19.352-18.945-26.344a99.54 99.54 0 0 1 10.23-2.914c3.063 6.07 8.203 14.2 16.512 22.266 17.773 17.254 43.434 27.867 75.03 31.148zm7.472-17.406c0 2.684-.492 5.3-1.44 7.848-30.793-11.56-48.684-34.516-56.152-46.195 5.13.555 10.063 1.398 14.73 2.52h.012c8.316 10.543 22.3 24.48 42.64 32.86a21.59 21.59 0 0 1 .211 2.969zm0 0" fill="#c12038"/></symbol><symbol id="salads" viewBox="0 0 512 512"><path d="M512 256c0 141.387-114.613 256-256 256S0 397.387 0 256 114.613 0 256 0s256 114.613 256 256zm0 0" fill="#925b44"/><path d="M503.934 320C475.516 430.414 375.285 512 256 512S36.484 430.414 8.066 320zm0 0" fill="#6d4336"/><path d="M447 255.988v10c0 10.06-8.152 18.21-18.215 18.21H83.215C73.152 284.2 65 276.047 65 265.988v-10c0-10.06 8.152-18.215 18.215-18.215h.19l53.21-157.03C144.87 56.387 167.73 40 193.445 40h125.11c25.715 0 48.574 16.387 56.828 40.742l53.21 157.03h.19c10.063 0 18.215 8.156 18.215 18.215zm0 0" fill="#738c96"/><path d="M428.79 284.2H108.215C98.152 284.2 90 276.047 90 265.988v-10c0-10.06 8.152-18.215 18.215-18.215h.19l53.21-157.03C169.87 56.387 192.73 40 218.445 40h100.11c25.715 0 48.574 16.387 56.828 40.742l53.21 157.03h.19c10.063 0 18.215 8.156 18.215 18.215v10c0 10.06-8.152 18.21-18.21 18.21zm0 0" fill="#87a0af"/><path d="M194.133 105.766a37.811 37.811 0 0 1 22.72-.945 37.802 37.802 0 0 1 18.098-13.766c19.16-6.9 40.234 2.547 47.938 21.176 14.152 1.363 26.95 10.656 32.1 24.918 7.113 19.723-3.113 41.477-22.84 48.586-19.16 6.9-40.23-2.547-47.938-21.176a37.871 37.871 0 0 1-6.223-1.133 37.772 37.772 0 0 1-18.094 13.766c-19.727 7.113-41.48-3.113-48.6-22.84s3.117-41.477 22.84-48.586zm0 0" fill="#ade4ad"/><path d="M357.785 141.734a37.772 37.772 0 0 1 3.117 22.523 37.77 37.77 0 0 1 15.441 16.691c8.715 18.4 1.32 40.293-16.48 49.75-.004 14.215-8.023 27.848-21.727 34.332-18.95 8.97-41.586.875-50.555-18.078-8.71-18.406-1.32-40.29 16.48-49.746 0-2.12.184-4.23.535-6.305a37.77 37.77 0 0 1-15.441-16.691c-8.97-18.95-.88-41.582 18.074-50.555s41.586-.875 50.555 18.078zm0 0" fill="#49cb5c"/><path d="M241.734 176.14a37.772 37.772 0 0 1 22.523-3.117 37.75 37.75 0 0 1 16.691-15.441c18.4-8.715 40.293-1.324 49.75 16.48 14.215 0 27.848 8.023 34.332 21.727 8.97 18.95.875 41.582-18.078 50.555-18.406 8.71-40.29 1.32-49.746-16.48-2.12 0-4.23-.184-6.305-.535a37.77 37.77 0 0 1-16.691 15.441c-18.95 8.97-41.582.875-50.555-18.074s-.875-41.586 18.078-50.555zm0 0" fill="#ade4ad"/><path d="M285.387 81.012c1.28-1.28 3.355-1.344 4.68-.105l1.332 1.28c24.805 24.805 24.805 65.023 0 89.828s-65.023 24.805-89.828 0l-1.28-1.332c-1.238-1.324-1.172-3.398.105-4.68zm0 0" fill="#e84444"/><path d="M299.234 162.484a64.04 64.04 0 0 1-7.836 9.531c-24.805 24.805-65.023 24.805-89.828 0l-1.28-1.328c-1.238-1.324-1.172-3.402.105-4.684l15.105-15.105a64.627 64.627 0 0 0 3.438 3.75c21.832 21.832 55.602 24.438 80.297 7.836zm0 0" fill="#d73131"/><path d="M285.402 80.996c1.3-1.3 3.418-1.336 4.742-.055l.32.316c18.375 18.375 13.16 53.38-11.645 78.18s-59.81 30.02-78.18 11.645c-.11-.105-.21-.215-.316-.32-1.285-1.324-1.246-3.44.055-4.742zm0 0" fill="#fd6c55"/><path d="M272.832 145.566a7.88 7.88 0 0 1-7.883 7.883 7.883 7.883 0 0 1-7.422-5.22l-5.047-14.047a.85.85 0 0 1 1.086-1.086l14.047 5.047a7.884 7.884 0 0 1 5.22 7.422zm15.082-36.617a7.88 7.88 0 0 0-8.934-1.555l-13.504 6.367a.85.85 0 0 0 0 1.531l13.504 6.363a7.88 7.88 0 0 0 8.934-1.555 7.881 7.881 0 0 0 0-11.152zm0 0" fill="#fc544d"/><path d="M142.508 193.8a37.775 37.775 0 0 1 16.848-15.273 37.78 37.78 0 0 1 5.082-22.164c10.297-17.574 32.535-23.805 50.383-14.43 11.742-8.012 27.523-9.07 40.605-1.4 18.1 10.598 24.164 33.855 13.566 51.945-10.293 17.574-32.53 23.805-50.38 14.434a38.365 38.365 0 0 1-5.508 3.113 37.77 37.77 0 0 1-5.082 22.16c-10.598 18.094-33.855 24.168-51.945 13.57s-24.168-33.852-13.57-51.945zm0 0" fill="#49cb5c"/><path d="M161.504 208.496c9.762 9.766 11.344 24.012 3.535 31.82s-22.06 6.23-31.82-3.535-11.348-24.008-3.535-31.82 22.055-6.227 31.82 3.535zm228.812-18.812c-7.81-7.812-22.055-6.23-31.82 3.535s-11.344 24.008-3.535 31.82 22.06 6.227 31.82-3.535 11.348-24.012 3.535-31.82zm0 0" fill="#fda800"/><path d="M161.504 208.496c9.762 9.766 11.344 24.012 3.535 31.82l-.03.03c-1.84 1.828-4.633 2.34-7.04 1.38-5.914-2.36-12.105-6.445-17.68-12.016s-9.656-11.766-12.016-17.68c-.96-2.406-.45-5.2 1.38-7.04l.03-.03c7.81-7.81 22.055-6.227 31.82 3.535zm228.844-18.78c-.008-.012-.02-.02-.03-.03-7.81-7.812-22.055-6.227-31.82 3.535s-11.344 24.012-3.53 31.82c.008.012.02.02.027.03 1.84 1.828 4.633 2.34 7.04 1.38 5.914-2.36 12.11-6.445 17.68-12.016s9.656-11.77 12.016-17.68c.96-2.406.45-5.203-1.38-7.04zm0 0" fill="#fdbf43"/><path d="M217.516 239.234a64.24 64.24 0 0 1-9.531-7.836c-24.805-24.805-24.805-65.023 0-89.828.438-.434.883-.863 1.332-1.28 1.324-1.238 3.398-1.172 4.68.105l15.105 15.105a64.627 64.627 0 0 0-3.75 3.438c-21.832 21.832-24.437 55.602-7.836 80.297zm0 0" fill="#d73131"/><path d="M299.004 225.402c1.3 1.3 1.336 3.418.055 4.742l-.316.32c-18.375 18.375-53.38 13.16-78.18-11.645s-30.02-59.81-11.645-78.18c.105-.11.215-.21.32-.316 1.324-1.285 3.44-1.246 4.742.055zm0 0" fill="#fd6c55"/><path d="M246.902 193.563l-5.047 14.05a7.884 7.884 0 0 1-7.422 5.22 7.883 7.883 0 0 1-7.883-7.883 7.883 7.883 0 0 1 5.22-7.422l14.05-5.047a.85.85 0 0 1 1.082 1.082zm-12.996-20.422l-13.504-6.363a7.885 7.885 0 0 0-8.937 1.555 7.89 7.89 0 0 0 0 11.152 7.887 7.887 0 0 0 8.938 1.555l13.504-6.363a.85.85 0 0 0 0-1.535zm38.7 45.84l-6.367-13.504a.85.85 0 0 0-1.531 0l-6.363 13.504a7.874 7.874 0 0 0 1.555 8.934 7.88 7.88 0 0 0 11.148 0 7.879 7.879 0 0 0 1.56-8.934zm0 0" fill="#fc544d"/><path d="M286.855 217.375a37.772 37.772 0 0 1 22.523-3.117 37.79 37.79 0 0 1 16.691-15.441c18.4-8.715 40.293-1.324 49.75 16.48 14.215.004 27.848 8.023 34.332 21.727 8.97 18.95.875 41.586-18.074 50.555-18.4 8.71-40.293 1.32-49.75-16.48a37.69 37.69 0 0 1-6.301-.535 37.77 37.77 0 0 1-16.691 15.441c-18.953 8.97-41.586.88-50.555-18.074s-.875-41.586 18.074-50.555zm0 0" fill="#49cb5c"/><path d="M153.047 217.375a37.772 37.772 0 0 1 22.523-3.117 37.77 37.77 0 0 1 16.691-15.441c18.4-8.715 40.293-1.324 49.75 16.48 14.215.004 27.844 8.023 34.332 21.727 8.97 18.95.875 41.586-18.078 50.555-18.4 8.71-40.29 1.32-49.746-16.48a37.7 37.7 0 0 1-6.305-.535 37.77 37.77 0 0 1-16.691 15.441c-18.95 8.97-41.586.88-50.555-18.074s-.875-41.586 18.078-50.555zm0 0" fill="#ade4ad"/><path d="M183.102 222.336a6 6 0 0 1-4.102 7.426 5.904 5.904 0 0 1-1.668.238 6.002 6.002 0 0 1-5.762-4.34c-1.027-3.56-1.57-7.6-1.57-11.66 0-3.312 2.688-6 6-6s6 2.688 6 6c0 2.96.38 5.844 1.102 8.336zM334 140c-4.07 0-8.102.543-11.66 1.57a6.001 6.001 0 0 0-4.34 5.762c0 .55.074 1.11.238 1.668a6 6 0 0 0 7.426 4.102C328.156 152.38 331.04 152 334 152a6 6 0 0 0 0-12zm27.762 94.336a6 6 0 0 0-7.426-4.102c-2.492.723-5.375 1.102-8.336 1.102-3.312 0-6 2.688-6 6s2.688 6 6 6c4.07 0 8.102-.543 11.66-1.57a6.001 6.001 0 0 0 4.34-5.762c0-.55-.074-1.11-.238-1.668zm-156.2-23.652a6 6 0 0 0-7.141 1.008c-.39.387-.734.84-1.012 1.344a6 6 0 0 0 2.352 8.152c2.273 1.254 4.578 3.023 6.672 5.117a6.002 6.002 0 0 0 8.488-8.484c-2.883-2.88-6.117-5.344-9.36-7.137zm0 0" fill="#07b128"/><path d="M189.762 142.336a5.992 5.992 0 0 1-4.102 7.426 5.85 5.85 0 0 1-1.664.238 6.002 6.002 0 0 1-5.762-4.34c-1.027-3.56-1.57-7.6-1.57-11.66 0-3.312 2.688-6 6-6s6 2.688 6 6c0 2.96.38 5.844 1.098 8.336zm146.61 29.4a6 6 0 0 0-9.496 1.34c-1.254 2.273-3.023 4.578-5.117 6.672a6 6 0 0 0 8.484 8.484c2.88-2.875 5.348-6.11 7.137-9.355a6 6 0 0 0-1.008-7.141zM218.887 100.75a6.003 6.003 0 0 0-7.145 1.008 5.99 5.99 0 0 0-1.008 1.344 6 6 0 0 0 2.352 8.152c2.27 1.254 4.578 3.023 6.672 5.117a6 6 0 0 0 8.484-8.484c-2.88-2.88-6.113-5.348-9.355-7.137zm90.016 101.87a6.008 6.008 0 0 0-8.157 2.352 6.002 6.002 0 0 0 2.355 8.152c2.27 1.254 4.578 3.023 6.672 5.117a6 6 0 0 0 8.484-8.484c-2.88-2.88-6.113-5.348-9.355-7.137zm0 0" fill="#058b1c"/><path d="M429.426 275.56l-42.504 138.1a20.006 20.006 0 0 1-19.117 14.117h-223.61a20 20 0 0 1-19.113-14.117l-42.508-138.1zm0 0" fill="#87a0af"/><path d="M446.984 271.863c-.328 6.973-6.336 12.336-13.312 12.336h-6.906l-39.844 129.46a20.006 20.006 0 0 1-19.117 14.117h-108.7c-60.78 0-114.453-39.64-132.332-97.73-4.02-13.055 5.742-26.27 19.398-26.27h243.5c5.492 0 10.207-4.29 10.324-9.78.102-4.617-2.93-8.535-7.117-9.793H77.965c-7.367 0-13.3-6.145-12.95-13.6.328-6.973 6.332-12.34 13.313-12.34h355.707c7.367 0 13.3 6.145 12.95 13.6zm0 0" fill="#b4d2d7"/><path d="M434.035 284.2h-321.5c-7.16 0-12.965-5.8-12.965-12.96a12.97 12.97 0 0 1 12.965-12.965h321.5A12.97 12.97 0 0 1 447 271.238c0 7.16-5.805 12.96-12.965 12.96zm0 0" fill="#e1ebf0"/><path d="M133.9 368h84.227c19.816 0 36.977 11.31 45.422 27.816h180.754c8.207 0 15.023 6.414 15.434 14.613a198.94 198.94 0 0 1 .254 10.039 200.66 200.66 0 0 1-.121 6.871c-.29 8.293-7.148 14.84-15.445 14.84H263.56c-8.44 16.512-25.605 27.82-45.422 27.82H133.9a3.864 3.864 0 0 1-3.863-3.863c0-11.523 9.34-20.863 20.863-20.863h57.184a6.96 6.96 0 0 0 6.953-6.957 6.953 6.953 0 0 0-6.953-6.953h-58.156a21.947 21.947 0 0 1-18.61-10.316 3.86 3.86 0 0 1 0-4.098 21.94 21.94 0 0 1 18.609-10.312h58.156a6.96 6.96 0 0 0 6.953-6.957 6.953 6.953 0 0 0-6.953-6.953H150.9c-11.523 0-20.863-9.34-20.863-20.863a3.862 3.862 0 0 1 3.863-3.863zm0 0" fill="#fff2b4"/><path d="M459.977 417.496l.023 2.973-.12 6.87c-.29 8.293-7.148 14.84-15.445 14.84H263.56c-8.44 16.512-25.605 27.82-45.422 27.82H133.9a3.864 3.864 0 0 1-3.863-3.863c0-11.094 8.66-20.164 19.586-20.82h51.504l5.12-.043s3.207-.105 3.844-.297c13.082-1.504 24.652-7.953 32.8-17.437 5.43-6.316 13.28-10.043 21.613-10.043zm0 0" fill="#ffe899"/></symbol><symbol id="scooter" viewBox="0 -63 512 511"><path d="M218.53 366.453a10.07 10.07 0 0 0-7.07 2.93 10.08 10.08 0 0 0-2.93 7.07 10.08 10.08 0 0 0 2.93 7.07 10.072 10.072 0 0 0 7.07 2.93 10.08 10.08 0 0 0 7.07-2.93 10.06 10.06 0 0 0 2.93-7.07 10.08 10.08 0 0 0-2.93-7.07 10.081 10.081 0 0 0-7.07-2.93zm199.177-167.887L394.402 93.28c6.3-.852 11.836-4.05 15.738-8.684a29.815 29.815 0 0 0 15.86 4.55h20a10 10 0 0 0 10-10v-40a10 10 0 0 0-10-10h-20a29.806 29.806 0 0 0-16.27 4.816c-4.578-5.176-11.262-8.45-18.7-8.45H332c-10.605 0-19.684 6.652-23.297 16H285c-14.336 0-26 11.664-26 26s11.664 26 26 26h51.473v20.152a10 10 0 1 0 20 0V93.516h17.5l25.102 113.418-47.508 84.617c-5.2 9.2-14.98 14.934-25.555 14.934H207.414c-4.965-41.637-40.465-74.03-83.414-74.03-19.004 0-36.934 6.2-51.852 17.902l-.06.047c-17.762 13.97-28.926 34.016-31.527 56.082H20.02c1.305-71.9 60.2-129.97 132.383-129.97h70.938c5.598 0 10.156 4.56 10.156 10.16v89.8a10 10 0 0 0 10 10h53.2a59.65 59.65 0 0 0 52.203-30.801 59.812 59.812 0 0 0 7.438-28.777l.05-33.223c.008-5.523-4.465-10.008-9.988-10.016-5.527 0-10.004 4.47-10.012 9.984l-.05 33.23a39.74 39.74 0 0 1-4.94 19.13 39.656 39.656 0 0 1-34.7 20.47H253.5v-79.8c0-5.12-1.3-9.95-3.55-14.18 8.984-5.2 15.047-14.895 15.047-25.992 0-16.543-13.46-30-30-30h-36.5a29.86 29.86 0 0 0-10 1.719V30.5c0-16.543-13.46-30-30-30H93.984C47.22.5 8.328 34.836 1.18 79.617a10 10 0 0 0-.465 3.016c0 .063.008.12.008.18A94.44 94.44 0 0 0 0 94.484v52.02c0 15.02 11.098 27.496 25.523 29.664l22.145 22.145C18.328 226.1 0 265.414 0 308.926v7.56a10 10 0 0 0 10 10h56.2a10.13 10.13 0 0 0-.2 2c0 14.512 5.37 27.8 14.215 37.97H10c-5.523 0-10 4.48-10 10a10 10 0 0 0 10 10l114 .03c31.98 0 58-26.02 58-58a10.13 10.13 0 0 0-.2-2H326c15.746 0 30.46-7.547 39.684-20.03h12.664A57.93 57.93 0 0 0 374 328.484c0 14.512 5.37 27.8 14.215 37.97H258.53c-5.523 0-10 4.48-10 10a10 10 0 0 0 10 10l173.47.03c31.98 0 58-26.02 58-58a57.93 57.93 0 0 0-4.359-22.031H502a10 10 0 0 0 10-10c0-52.785-41.973-95.953-94.293-97.887zm-219.2-62.062h36.5c5.512 0 10 4.484 10 10s-4.488 10-10 10h-36.5c-5.516 0-10-4.488-10-10s4.484-10 10-10zM20 94.484c0-.617.03-1.23.047-1.848h109.426a10 10 0 1 0 0-20H23.297c9.344-30.164 37.496-52.133 70.688-52.133h64.508a10.01 10.01 0 0 1 10 10v116c0 5.512-4.484 10-10 10H30.004c-5.52 0-10.004-4.488-10.004-10zm34.145 82.02h22.883a152.438 152.438 0 0 0-13.902 8.98zM162 328.484c0 20.824-16.84 37.78-37.613 37.988-.13-.004-.258-.02-.387-.02h-1.152C102.426 365.84 86 349.05 86 328.484a10.13 10.13 0 0 0-.2-2h76.4a10.13 10.13 0 0 0-.2 2zm-101.258-22c2.477-15.887 10.82-30.238 23.707-40.36.03-.02.06-.047.1-.066 11.352-8.898 24.996-13.605 39.46-13.605 31.906 0 58.434 23.457 63.25 54.03zM426 49.148h10v20h-10a10.01 10.01 0 0 1-10-10 10.01 10.01 0 0 1 10-10zM279 67.516a6.01 6.01 0 0 1 6-6h22.03v7.03a25.07 25.07 0 0 0 .496 4.969H285a6.01 6.01 0 0 1-6-6zm67.473 6H332a4.976 4.976 0 0 1-4.97-4.97V50.484a4.98 4.98 0 0 1 4.97-4.968h59.03a4.98 4.98 0 0 1 4.97 4.968v18.063c0 2.742-2.23 4.97-4.97 4.97zM470 328.484c0 20.824-16.84 37.78-37.613 37.988-.13-.004-.258-.02-.387-.02h-1.152C410.426 365.84 394 349.05 394 328.484a37.94 37.94 0 0 1 7.039-22.031h61.922A37.94 37.94 0 0 1 470 328.484zm-92.637-42.03l38.133-67.918c38.94.715 71.004 30.1 75.863 67.918zm0 0"/><path d="M346.473 163.668a10 10 0 1 0 0-20h-.035c-5.523 0-9.984 4.477-9.984 10s4.496 10 10.02 10zm0 0"/></symbol><symbol id="sets" viewBox="0 0 512 512"><path d="M487.074 323.93c7.973 0 13.637 7.844 11.043 15.383C463.55 439.793 368.215 512 256 512 129.95 512 25.18 420.898 3.934 300.95c-.55-3.105 1.848-5.953 5-5.953h210.28c42.64 0 77.207-34.566 77.207-77.21V17.246c0-7.434 6.87-12.984 14.14-11.406a254.189 254.189 0 0 1 62.035 22.215c8.31 4.258 13.473 12.87 13.473 22.207V318.93a5 5 0 0 0 5 5zm0 0" fill="#ebae56"/><path d="M370 335V26.742C454.168 68.676 512 155.578 512 256c0 29.426-4.98 57.684-14.117 84H375a5 5 0 0 1-5-5zm0 0" fill="#fff2b4"/><path d="M512 256c0 10.703-.668 21.254-1.94 31.613-17.602 12.535-39.137 19.9-62.39 19.9-59.467.01-107.67-48.193-107.67-107.658S388.203 92.188 447.668 92.188c1.73 0 3.45.047 5.16.13C489.77 136.69 512 193.746 512 256zM0 256a257.62 257.62 0 0 0 4.086 45.773c10.656 5.258 22.648 8.223 35.336 8.223h192c44.184 0 80-35.816 80-80V6.035A256.803 256.803 0 0 0 256 0C114.613 0 0 114.613 0 256zm0 0" fill="#607882"/><path d="M420.75 304.133C374.313 292.18 340 250.023 340 199.855s34.313-92.324 80.75-104.273C386.422 115.246 363 154.56 363 199.855s23.422 84.61 57.75 104.277zM150 22.914C100.648 45.395 59.7 83.1 33.12 130H140a10 10 0 0 0 10-10zm20-8.094V120a10 10 0 0 0 10 10h106.422a10 10 0 0 0 10-10V3.188A257.686 257.686 0 0 0 256 0c-30.172 0-59.117 5.234-86 14.82zM0 256a258.84 258.84 0 0 0 1.375 26.648c10.707 7.758 23.848 12.348 38.047 12.348h192c35.898 0 65-29.102 65-65V160a10 10 0 0 0-10-10H22.914C8.203 182.3 0 218.19 0 256zm0 0" fill="#495959"/><path d="M362.586 199.855c0-46.988 38.094-85.078 85.078-85.078a84.97 84.97 0 0 1 24.168 3.504c25.344 39.633 40.066 86.71 40.16 137.223-15.598 18.016-38.625 29.43-64.328 29.43-46.984 0-85.078-38.1-85.078-85.078zm0 0" fill="#8f4a4b"/><path d="M393.574 154.336c-1.105-1.102-1.656-2.547-1.656-3.992s.55-2.89 1.656-3.992c14.29-14.293 33.293-22.164 53.504-22.164 11.5 0 22.61 2.56 32.684 7.387a255.36 255.36 0 0 1 10.125 20.211c-11.805-10.535-26.86-16.305-42.81-16.305-17.195 0-33.36 6.695-45.52 18.855a5.641 5.641 0 0 1-7.984 0zm15.973 83.055c20.695 20.695 54.367 20.695 75.066 0 2.203-2.207 2.203-5.78 0-7.988s-5.78-2.203-7.988 0c-16.293 16.293-42.8 16.293-59.094 0a5.653 5.653 0 0 0-7.988 0 5.64 5.64 0 0 0-1.652 3.996 5.63 5.63 0 0 0 1.656 3.992zm15.97-15.973c11.89 11.887 31.234 11.887 43.125 0 2.207-2.207 2.207-5.78 0-7.984s-5.78-2.207-7.984-.004c-7.488 7.488-19.668 7.488-27.152 0a5.65 5.65 0 0 0-7.988.004 5.63 5.63 0 0 0-1.652 3.992c0 1.44.55 2.89 1.652 3.992zm11.773-21.562a9.79 9.79 0 0 0 9.789 9.789 9.79 9.79 0 0 0 9.789-9.789 9.79 9.79 0 0 0-9.789-9.789 9.79 9.79 0 0 0-9.789 9.789zm63.293 45.52a5.65 5.65 0 0 0-7.984 0c-12.16 12.16-28.324 18.855-45.52 18.855s-33.36-6.695-45.52-18.855a5.65 5.65 0 0 0-7.984 0c-1.105 1.102-1.656 2.547-1.656 3.992s.55 2.89 1.656 3.992c14.29 14.293 33.293 22.164 53.504 22.164s39.215-7.87 53.504-22.164a5.641 5.641 0 0 0 0-7.984zm-15.97-75.066a5.653 5.653 0 0 0 0-7.988c-20.7-20.695-54.37-20.695-75.066 0a5.62 5.62 0 0 0-1.656 3.992 5.63 5.63 0 0 0 1.656 3.996 5.65 5.65 0 0 0 7.984 0c16.293-16.293 42.805-16.293 59.098 0a5.65 5.65 0 0 0 7.984 0zm-15.973 15.97a5.645 5.645 0 0 0 0-7.984c-11.89-11.89-31.234-11.89-43.125 0a5.63 5.63 0 0 0 0 7.984 5.65 5.65 0 0 0 7.988 0c7.484-7.484 19.664-7.484 27.148 0a5.65 5.65 0 0 0 7.988 0zm0 0" fill="#a65759"/><path d="M468.094 443.922c3.238 12.125.72 24.39-7.035 34.254-1.05 1.336-3.05 1.94-5.055 1.53l-133.82-27.484L70.914 393.2c-6.516-1.53-10.828-6.902-9.75-12.148l1.13-5.484c.508-2.48 2.145-4.5 4.4-5.832-1.766-2.062-2.656-4.598-2.266-7.172l.836-5.535c.8-5.297 6.703-8.848 13.344-8.03l256.19 31.43 135.074 20.44c2.023.31 3.69 1.566 4.215 3.184 3.87 11.938 1.996 24.316-5.234 34.578-.977 1.387-2.94 2.094-4.965 1.79l-1.352-.203 1.504.31c2.004.4 3.605 1.758 4.043 3.398zm0 0" fill="#ffe899"/><path d="M468.086 443.887a40.04 40.04 0 0 1 1.371 10.406 40.183 40.183 0 0 1-5.363 9.02c-1.04 1.324-3.043 1.9-5.03 1.504l-133.82-27.484L62.29 375.566c.512-2.48 2.145-4.504 4.414-5.832 1.867 2.18 4.72 3.84 8.102 4.45l254.016 45.79 133.727 20.242 1.504.31c1.988.4 3.598 1.738 4.035 3.363zm6.004-39.867c-.523-1.605-2.2-2.844-4.203-3.148L334.81 380.426l-256.19-31.43c-6.64-.816-12.543 2.734-13.344 8.03L331.1 404.944l135.074 20.445c2.004.3 3.977-.387 4.945-1.762a39.769 39.769 0 0 0 4.883-9.293 40.399 40.399 0 0 0-1.9-10.316zm0 0" fill="#fff2b4"/><path d="M468.094 443.922c3.238 12.125.72 24.39-7.035 34.254-1.05 1.336-3.05 1.94-5.055 1.53L331.98 454.23l6.734-32.79 5.98-39.52 125.188 18.95c2.023.305 3.69 1.566 4.215 3.18 3.87 11.938 1.996 24.32-5.234 34.578-.816 1.164-2.336 1.848-3.996 1.855l-.05.25c1.637.56 2.898 1.762 3.277 3.188zm0 0" fill="#fc544d"/><path d="M468.094 443.922a39.91 39.91 0 0 1 1.363 10.37 40.186 40.186 0 0 1-5.34 8.996c-1.05 1.332-3.05 1.938-5.055 1.527l-124.027-25.473 3.676-17.87 123.836 18.742 1.504.31c2.004.4 3.605 1.758 4.043 3.398zm6.004-39.87c-.523-1.613-2.19-2.875-4.21-3.18l-125.19-18.95-3.71 24.52 125.19 18.95c2.02.305 3.984-.402 4.965-1.793a39.99 39.99 0 0 0 4.863-9.262 40.14 40.14 0 0 0-1.906-10.285zm0 0" fill="#fd6c55"/><path d="M231.586 99.766l-1.582-1.64c-21.937-23.54 12.39-57.87 35.934-35.934.55.516 1.098 1.043 1.637 1.582 15.102 15.102 20.578 35.47 15.367 51.36-15.887 5.21-36.254-.266-51.355-15.367zm0 0" fill="#fd7d43"/><path d="M203.422 63.773l1.637-1.582c23.54-21.937 57.87 12.395 35.934 35.934a69.25 69.25 0 0 1-1.582 1.641c-15.102 15.102-35.47 20.578-51.36 15.367-5.207-15.89.266-36.254 15.37-51.36zm0 0" fill="#fdac89"/><path d="M188.05 21.922c15.89-5.21 36.258.266 51.36 15.367.54.54 1.066 1.086 1.582 1.637C262.93 62.47 228.602 96.8 205.06 74.86a71.438 71.438 0 0 1-1.637-1.582c-15.105-15.102-20.578-35.47-15.37-51.355zm0 0" fill="#fd7d43"/><path d="M282.94 21.922c5.21 15.89-.266 36.254-15.367 51.355-.54.54-1.086 1.066-1.637 1.582-23.543 21.94-57.87-12.39-35.934-35.934a71.438 71.438 0 0 1 1.582-1.637c15.102-15.102 35.47-20.578 51.355-15.367zm0 0" fill="#fdac89"/><path d="M95.785 112.496c-7.81 7.813-20.473 7.813-28.28 0L53.887 98.883c8.32-10.844 17.547-20.836 27.488-30.11 12.113-11.3 25-21.773 39.438-30.21l10.332 10.297c7.81 7.81 7.81 20.473 0 28.28zm0 0" fill="#73d37a"/><path d="M111.367 96.918l-15.582 15.578c-7.81 7.813-20.473 7.813-28.28 0L53.887 98.883c3.11-3.996 6.305-7.945 9.645-11.746C71.64 95.06 82.77 100 95 100a44.91 44.91 0 0 0 16.367-3.082zm0 0" fill="#49cb5c"/><use xlink:href="#B" fill="#fff5f5"/><use xlink:href="#B" x="-16" fill="#fd8e82"/><path d="M80 197v40c0 11.008-5.934 20.62-14.77 25.836C71.074 266.328 75 272.695 75 280H65c-5.98 0-11.336-2.64-15-6.8-3.664 4.16-9.02 6.8-15 6.8H25c0-11.047 8.953-20 20-20h.016A29.852 29.852 0 0 1 39 242v-50.004c0-10.37 5.266-19.516 13.27-24.902C67.777 168.258 80 181.195 80 197zm62.27-29.906c-8.004 5.387-13.27 14.53-13.27 24.902V242a29.852 29.852 0 0 0 6.016 18H135c-11.047 0-20 8.953-20 20h10c5.98 0 11.336-2.64 15-6.8 3.664 4.16 9.02 6.8 15 6.8h10c0-7.305-3.926-13.672-9.77-17.164C164.066 257.62 170 248.008 170 237v-40c0-15.805-12.223-28.742-27.73-29.906zM260 237v-40c0-15.805-12.223-28.742-27.73-29.906-8.004 5.387-13.27 14.53-13.27 24.902V242a29.852 29.852 0 0 0 6.016 18H225c-11.047 0-20 8.953-20 20h10c5.98 0 11.336-2.64 15-6.8 3.664 4.16 9.02 6.8 15 6.8h10c0-7.305-3.926-13.672-9.77-17.164C254.066 257.62 260 248.008 260 237zm0 0" fill="#ffa799"/><path d="M71.555 206.238a6.103 6.103 0 0 1-5.906 4.602 6.06 6.06 0 0 1-1.504-.191c-7.664-1.94-20.62-1.94-28.29 0-3.266.832-6.582-1.145-7.4-4.4a6.1 6.1 0 0 1 4.41-7.41c9.617-2.437 24.676-2.437 34.29 0a6.1 6.1 0 0 1 4.41 7.41zm-4.4-27.4c-9.617-2.437-24.676-2.437-34.29 0a6.1 6.1 0 0 0-4.41 7.41 6.09 6.09 0 0 0 7.41 4.41c7.664-1.945 20.62-1.945 28.29 0a6.06 6.06 0 0 0 1.504.191 6.1 6.1 0 0 0 5.906-4.602 6.1 6.1 0 0 0-4.41-7.41zm0 60c-9.617-2.437-24.676-2.437-34.29 0a6.1 6.1 0 0 0-4.41 7.41 6.09 6.09 0 0 0 7.41 4.41c7.664-1.945 20.62-1.945 28.29 0a6.06 6.06 0 0 0 1.504.191 6.1 6.1 0 0 0 5.906-4.602 6.1 6.1 0 0 0-4.41-7.41zm0-20c-9.617-2.437-24.676-2.437-34.29 0a6.1 6.1 0 0 0-4.41 7.41 6.09 6.09 0 0 0 7.41 4.41c7.664-1.945 20.62-1.945 28.29 0a6.06 6.06 0 0 0 1.504.191 6.1 6.1 0 0 0 5.906-4.602 6.1 6.1 0 0 0-4.41-7.41zm90-40c-9.617-2.437-24.676-2.437-34.29 0a6.1 6.1 0 0 0-4.41 7.41 6.09 6.09 0 0 0 7.41 4.41c7.664-1.945 20.62-1.945 28.29 0a6.06 6.06 0 0 0 1.504.191 6.1 6.1 0 0 0 5.906-4.602 6.1 6.1 0 0 0-4.41-7.41zm0 20c-9.617-2.437-24.676-2.437-34.29 0a6.1 6.1 0 0 0-4.41 7.41 6.09 6.09 0 0 0 7.41 4.41c7.664-1.945 20.62-1.945 28.29 0a6.06 6.06 0 0 0 1.504.191 6.1 6.1 0 0 0 5.906-4.602 6.1 6.1 0 0 0-4.41-7.41zm0 20c-9.617-2.437-24.676-2.437-34.29 0a6.1 6.1 0 0 0-4.41 7.41 6.09 6.09 0 0 0 7.41 4.41c7.664-1.945 20.62-1.945 28.29 0a6.06 6.06 0 0 0 1.504.191 6.1 6.1 0 0 0 5.906-4.602 6.1 6.1 0 0 0-4.41-7.41zm0 20c-9.617-2.437-24.676-2.437-34.29 0a6.1 6.1 0 0 0-4.41 7.41 6.09 6.09 0 0 0 7.41 4.41c7.664-1.945 20.62-1.945 28.29 0a6.06 6.06 0 0 0 1.504.191 6.1 6.1 0 0 0 5.906-4.602 6.1 6.1 0 0 0-4.41-7.41zm58.71-48.18c7.668-1.94 20.62-1.94 28.29 0a6.06 6.06 0 0 0 1.504.191 6.1 6.1 0 0 0 5.906-4.602 6.1 6.1 0 0 0-4.41-7.41c-9.617-2.437-24.676-2.437-34.29 0a6.1 6.1 0 0 0-4.41 7.41c.828 3.266 4.145 5.242 7.4 4.4zm31.29 8.18c-9.617-2.437-24.676-2.437-34.29 0a6.1 6.1 0 0 0-4.41 7.41 6.09 6.09 0 0 0 7.41 4.41c7.664-1.945 20.62-1.945 28.29 0a6.06 6.06 0 0 0 1.504.191 6.1 6.1 0 0 0 5.906-4.602 6.1 6.1 0 0 0-4.41-7.41zm0 20c-9.617-2.437-24.676-2.437-34.29 0a6.1 6.1 0 0 0-4.41 7.41 6.09 6.09 0 0 0 7.41 4.41c7.664-1.945 20.62-1.945 28.29 0a6.06 6.06 0 0 0 1.504.191 6.1 6.1 0 0 0 5.906-4.602 6.1 6.1 0 0 0-4.41-7.41zm0 20c-9.617-2.437-24.676-2.437-34.29 0a6.1 6.1 0 0 0-4.41 7.41 6.09 6.09 0 0 0 7.41 4.41c7.664-1.945 20.62-1.945 28.29 0a6.06 6.06 0 0 0 1.504.191 6.1 6.1 0 0 0 5.906-4.602 6.1 6.1 0 0 0-4.41-7.41zm0 0" fill="#fd7c66"/></symbol><symbol id="shopping-bag" viewBox="0 0 489 489"><path d="M440.1 422.7l-28-315.3c-.6-7-6.5-12.3-13.4-12.3h-57.6C340.3 42.5 297.3 0 244.5 0s-95.8 42.5-96.6 95.1H90.3c-7 0-12.8 5.3-13.4 12.3l-28 315.3c0 .4-.1.8-.1 1.2 0 35.9 32.9 65.1 73.4 65.1h244.6c40.5 0 73.4-29.2 73.4-65.1 0-.4 0-.8-.1-1.2zM244.5 27c37.9 0 68.8 30.4 69.6 68.1H174.9c.8-37.7 31.7-68.1 69.6-68.1zm122.3 435H122.2c-25.4 0-46-16.8-46.4-37.5l26.8-302.3h45.2v41c0 7.5 6 13.5 13.5 13.5s13.5-6 13.5-13.5v-41h139.3v41c0 7.5 6 13.5 13.5 13.5s13.5-6 13.5-13.5v-41h45.2l26.9 302.3c-.4 20.7-21.1 37.5-46.4 37.5z"/></symbol><symbol id="twitter" viewBox="0 0 512 512"><path d="M512 97.248c-19.04 8.352-39.328 13.888-60.48 16.576 21.76-12.992 38.368-33.408 46.176-58.016-20.288 12.096-42.688 20.64-66.56 25.408C411.872 60.704 384.416 48 354.464 48c-58.112 0-104.896 47.168-104.896 104.992 0 8.32.704 16.32 2.432 23.936-87.264-4.256-164.48-46.08-216.352-109.792-9.056 15.712-14.368 33.696-14.368 53.056 0 36.352 18.72 68.576 46.624 87.232-16.864-.32-33.408-5.216-47.424-12.928v1.152c0 51.008 36.384 93.376 84.096 103.136-8.544 2.336-17.856 3.456-27.52 3.456-6.72 0-13.504-.384-19.872-1.792 13.6 41.568 52.192 72.128 98.08 73.12-35.712 27.936-81.056 44.768-130.144 44.768-8.608 0-16.864-.384-25.12-1.44C46.496 446.88 101.6 464 161.024 464c193.152 0 298.752-160 298.752-298.688 0-4.64-.16-9.12-.384-13.568 20.832-14.784 38.336-33.248 52.608-54.496z"/></symbol><symbol id="velcome" viewBox="0 0 52.917 22.396"><path d="M25.513 7.238l6.605 6.605-6.605 6.605-6.605-6.605z" fill="#ffda00"/><path d="M18.91.634l6.605 6.605-6.605 6.605-6.605-6.605z" fill="#ffff4b"/><path d="M32.116.634L38.72 7.24l-6.605 6.605L25.51 7.24z" fill="#ff0"/></symbol><symbol id="youtube" viewBox="0 0 90 90"><path d="M70.94 65.832H66l.023-2.87a2.33 2.33 0 0 1 2.326-2.318h.315a2.332 2.332 0 0 1 2.332 2.318l-.057 2.87zm-18.526-6.148c-1.253 0-2.278.842-2.278 1.873V75.5c0 1.03 1.025 1.87 2.278 1.87 1.258 0 2.284-.84 2.284-1.87V61.557c0-1.032-1.026-1.873-2.284-1.873zM82.5 51.88v26.544C82.5 84.8 76.98 90 70.23 90H19.77C13.02 90 7.5 84.8 7.5 78.423V51.88c0-6.367 5.52-11.578 12.27-11.578h50.46c6.75 0 12.27 5.21 12.27 11.578zM23.137 81.305l-.004-27.96 6.255.002v-4.143l-16.674-.025v4.073l5.205.015v28.04h5.218zm18.75-23.796h-5.215v14.93c0 2.16.13 3.24-.008 3.62-.424 1.158-2.33 2.388-3.073.125-.126-.396-.015-1.59-.017-3.643l-.02-15.034h-5.186l.016 14.798c.004 2.268-.05 3.96.018 4.73.127 1.357.082 2.94 1.34 3.843 2.346 1.7 6.843-.252 7.968-2.668v3.083l4.188.005-.001-23.8zM58.57 74.607l-.01-12.427c-.004-4.736-3.547-7.572-8.356-3.74l.02-9.24-5.21.008L45 81.1l4.284-.062.4-1.986c5.473 5.02 8.914 1.58 8.906-4.444zm16.32-1.647l-3.9.02-.01.53v2.182c0 1.168-.965 2.12-2.137 2.12h-.766c-1.174 0-2.14-.95-2.14-2.12v-5.74h8.954v-3.37c0-2.463-.063-4.925-.267-6.333-.64-4.454-6.893-5.16-10.05-2.88-.99.712-1.748 1.665-2.188 2.945s-.665 3.03-.665 5.254v7.4c.002 12.318 14.964 10.577 13.18-.018zM54.833 32.732a3.55 3.55 0 0 0 1.254 1.584c.56.394 1.276.592 2.134.592.752 0 1.418-.203 1.998-.622s1.065-1.04 1.463-1.87l-.1 2.046h5.813V9.74H62.82v19.24a1.907 1.907 0 0 1-1.907 1.895 1.91 1.91 0 0 1-1.904-1.895V9.74h-4.776v16.674c0 2.124.04 3.54.102 4.258s.23 1.397.498 2.06zM37.217 18.77c0-2.373.198-4.226.59-5.562.396-1.33 1.107-2.4 2.137-3.208s2.342-1.217 3.94-1.217c1.345 0 2.497.264 3.46.78.967.52 1.713 1.195 2.23 2.028a8 8 0 0 1 1.076 2.574c.195.89.29 2.235.29 4.048v6.252c0 2.293-.092 3.98-.27 5.05s-.557 2.07-1.146 3.004c-.58.924-1.33 1.615-2.237 2.056-.918.445-1.968.663-3.154.663-1.325 0-2.44-.183-3.36-.565s-1.636-.953-2.144-1.714-.874-1.7-1.092-2.772-.323-2.707-.323-4.874l.003-6.545zm4.553 9.82c0 1.4 1.042 2.543 2.31 2.543S46.39 30 46.39 28.6V15.43c0-1.398-1.038-2.54-2.308-2.54s-2.31 1.143-2.31 2.54V28.6zm-16.088 6.645h5.484l.006-18.96L37.652.033h-5.998L28.21 12.097 24.715 0H18.78l6.894 16.284.01 18.95z"/></symbol></svg>