<svg xmlns="http://www.w3.org/2000/svg" viewBox="0 0 512 512"><path d="M512 256c0 141.387-114.613 256-256 256S0 397.387 0 256 114.613 0 256 0s256 114.613 256 256zm0 0" fill="#016a74"/><path d="M384.832 101l-70 340h-210l-70-340h101.27c4.586 0 8.543 3.13 9.695 7.566C149.148 121.473 160.88 131 174.832 131h70c13.957 0 25.687-9.527 29.04-22.434 1.152-4.437 5.11-7.566 9.69-7.566zm0 0" fill="#dca050"/><path d="M70 101l70 340h-35.168l-70-340zm0 0" fill="#ce9047"/><path d="M395.066 134.992c.637 3.102-1.73 6.008-4.898 6.008H29.496c-3.168 0-5.535-2.906-4.898-6.008l14.414-70A5 5 0 0 1 43.906 61h331.852a5 5 0 0 1 4.895 3.992zm0 0" fill="#f8bb5e"/><path d="M390.168 141H249.832v5a5 5 0 0 1-5 5h-70a5 5 0 0 1-5-5v-5H58.867L75.34 61h300.418a5 5 0 0 1 4.895 3.992l14.414 70c.637 3.102-1.73 6.008-4.898 6.008zm0 0" fill="#fbc56d"/><path d="M420 295v20a5 5 0 0 1-5 5h-6.19l-17.082 81.344A23.49 23.49 0 0 1 368.742 420H278.1c-11.277 0-20.965-8.02-23.07-19.102L239.648 320H235a5 5 0 0 1-5-5v-20a5 5 0 0 1 5-5h180a5 5 0 0 1 5 5zm0 0" fill="#b4d2d7"/><path d="M355 400c13.605 0 26.61-2.6 38.54-7.3l-1.812 8.645C389.44 412.215 379.855 420 368.742 420H278.1c-11.277 0-20.965-8.02-23.07-19.102L239.648 320h13.375c11.215 45.914 52.605 80 101.977 80zm0 0" fill="#9bb9c3"/><path d="M415 320H255a5 5 0 0 1-5-5v-20a5 5 0 0 1 5-5h160a5 5 0 0 1 5 5v20a5 5 0 0 1-5 5zm0 0" fill="#e1ebf0"/><path d="M358.332 465.207a4.79 4.79 0 0 1-4.793 4.793h-11.5L84.03 462.738c-6.69-.187-11.992-4.582-11.992-9.937V447.2c0-2.816 1.477-5.36 3.84-7.172-1.996-1.648-3.277-3.867-3.4-6.36l-.293-5.594c-.277-5.348 4.785-10.012 11.457-10.55l257.273-20.754 11.102-.582c3.438-.18 6.328 2.56 6.328 6.004v63.016zm0 0" fill="#ffe899"/><path d="M342.203 421.535l-270.027 6.54c-.277-5.348 4.785-10.012 11.457-10.55l257.273-20.754 11.543-.605c3.2-.168 5.887 2.38 5.887 5.582v18.94zm16.13 14.375l-15.332.805-258.035 6.25c-3.57.086-6.8-1.055-9.086-2.937-2.363 1.813-3.84 4.355-3.84 7.172l270 7.602h16.293zm0 0" fill="#fff2b4"/><path d="M483.297 467.484c-.762 1.52-2.598 2.516-4.645 2.516H352.04l.62-40-1.766-33.754 126.44-6.63c2.04-.105 3.93.793 4.766 2.27 6.19 10.918 6.848 23.422 1.832 34.922-.68 1.56-2.465 2.648-4.504 2.754l-.004.004v.48c1.723.215 3.207 1.14 3.87 2.47 5.613 11.223 5.613 23.746 0 34.97zm0 0" fill="#fc544d"/><path d="M486.72 442.398c-.687 3.363-1.82 6.68-3.422 9.887-.762 1.52-2.598 2.516-4.645 2.516H352.277l.383-24.8.324 6.19 118.12-6.19h7.547c2.047 0 3.883.996 4.645 2.516 1.605 3.207 2.734 6.523 3.422 9.883zm-8.086-28.012c2.043-.11 3.824-1.2 4.504-2.754 1.434-3.29 2.39-6.66 2.898-10.055-.86-3.316-2.164-6.57-3.934-9.69-.836-1.477-2.727-2.375-4.766-2.27l-126.44 6.63 1.297 24.766zm0 0" fill="#fd6c55"/></svg>