<svg xmlns="http://www.w3.org/2000/svg" xmlns:xlink="http://www.w3.org/1999/xlink" viewBox="0 0 512 512"><path d="M61.805 422.785C23.648 378.406.438 320.813.008 257.797-.97 116.06 114.258 0 256 0c141.387 0 256 114.617 256 256 0 63.434-23.082 121.473-61.297 166.19-6.81 7.97-16.727 12.602-27.203 12.602H87.898c-10.035 0-19.55-4.398-26.094-12.008zm0 0" fill="#016a74"/><path d="M451 60v361.848C404.043 477.004 334.113 512 256 512s-148.043-34.996-195-90.152V60a10 10 0 0 1 10-10h165V40c0-11.047 8.953-20 20-20s20 8.953 20 20v10h165a10 10 0 0 1 10 10zm0 0" fill="#dca050"/><path d="M256 480c-60.812 0-116.945-20.012-162.195-53.793 43.887 49.262 106.508 81.47 176.695 85.387A258.59 258.59 0 0 1 256 512c-78.113 0-148.043-34.996-195-90.152V60a10 10 0 0 1 10-10h29a10 10 0 0 0-10 10v144.94a10 10 0 0 0 10 10h326.7a5.3 5.3 0 0 1 5.301 5.301V423c-47.39 40.406-108.84 57-176 57zm0 0" fill="#ce9047"/><use xlink:href="#B" fill="#fdd78d"/><path d="M130.25 357.07C98.926 348.066 76 319.22 76 285s22.926-63.066 54.25-72.07C109.086 227.957 95 254.61 95 285s14.086 57.043 35.25 72.07zm0 0" fill="#fdcb6b"/><use xlink:href="#C" fill="#fff5f5"/><path d="M95 285c0 18.605 5.285 35.8 14.234 49.793C95.035 322.87 86 304.992 86 285s9.035-37.87 23.234-49.793C100.285 249.2 95 266.395 95 285zm0 0" fill="#fdcdc7"/><use xlink:href="#B" x="105" fill="#fdd78d"/><path d="M235.25 357.07C203.926 348.066 181 319.22 181 285s22.926-63.066 54.25-72.07C214.086 227.957 200 254.61 200 285s14.086 57.043 35.25 72.07zm0 0" fill="#fdcb6b"/><use xlink:href="#C" x="105" fill="#fd7c66"/><path d="M292.902 293.953C297.293 290.352 300 285.43 300 280c0-11.047-11.19-20-25-20l-.437.004c-3.992.055-7.77-1.547-10.63-4.336A19.89 19.89 0 0 0 250 250a19.85 19.85 0 0 0-11.434 3.602c-5.023 3.516-10.39 6.477-15.97 9.03C215.07 266.078 210 272.566 210 280c0 6.418 3.777 12.125 9.648 15.78a22.5 22.5 0 0 1 10.488 16.559c.008.086.02.172.03.258 1.16 9.043 8.508 16.28 17.57 17.277 7.156.785 13.656-2.215 17.762-7.242 4.133 5.063 10.688 8.066 17.902 7.227 9.07-1.06 16.375-8.355 17.453-17.422.898-7.566-2.45-14.395-7.953-18.484zM256 305c-11.047 0-20-8.953-20-20s8.953-20 20-20 20 8.953 20 20-8.953 20-20 20zm-56-20c0 18.605 5.285 35.8 14.234 49.793C200.035 322.87 191 304.992 191 285s9.035-37.87 23.234-49.793C205.285 249.2 200 266.395 200 285zm0 0" fill="#fc544d"/><use xlink:href="#B" x="210" fill="#fdd78d"/><path d="M340.25 357.07C308.926 348.066 286 319.22 286 285s22.926-63.066 54.25-72.07C319.086 227.957 305 254.61 305 285s14.086 57.043 35.25 72.07zm0 0" fill="#fdcb6b"/><path d="M296 285c0 35.898 29.102 65 65 65s65-29.102 65-65-29.102-65-65-65-65 29.102-65 65zm85 0c0 11.047-8.953 20-20 20s-20-8.953-20-20 8.953-20 20-20 20 8.953 20 20zm0 0" fill="#2abbc7"/><path d="M319.234 235.207C310.285 249.2 305 266.395 305 285s5.285 35.8 14.234 49.793C305.035 322.87 296 304.992 296 285s9.035-37.87 23.234-49.793zM406 286v.125c-.02 6.2-3.652 11.758-9.098 14.727-6.773 3.688-12.363 9.277-16.05 16.05-2.97 5.445-8.527 9.078-14.727 9.098H366c-22.988 0-41.445-19.39-39.9-42.703 1.297-19.746 17.246-35.777 36.98-37.19.137-.012.273-.02.4-.027 7.246-.445 14.133 3.34 17.72 9.652 3.688 6.492 9.14 11.848 15.7 15.422 5.45 2.965 9.082 8.523 9.102 14.727zm-25-1c0-11.047-8.953-20-20-20s-20 8.953-20 20 8.953 20 20 20 20-8.953 20-20zm0 0" fill="#0cabb9"/><use xlink:href="#B" y="100" fill="#fdd78d"/><use xlink:href="#C" y="100" fill="#925b44"/><path d="M130.25 457.07C98.926 448.066 76 419.22 76 385s22.926-63.066 54.25-72.07C109.086 327.957 95 354.61 95 385s14.086 57.043 35.25 72.07zm0 0" fill="#fdcb6b"/><path d="M95 385c0 18.605 5.285 35.8 14.234 49.793C95.035 422.87 86 404.992 86 385s9.035-37.87 23.234-49.793C100.285 349.2 95 366.395 95 385zm86 10c-2.52 0-4.465 2.207-4.152 4.71.363 2.945-.582 6.023-2.848 8.29s-5.344 3.21-8.29 2.848c-2.504-.312-4.71 1.633-4.71 4.152 0 5.742-4.84 10.355-10.664 9.98-5.316-.344-9.336-4.996-9.336-10.324v-.566c0-2.434-2.062-4.285-4.496-4.176-2.7.117-5.44-.852-7.504-2.914-1.922-1.922-2.895-4.43-2.922-6.95-.03-2.793-2.28-5.05-5.078-5.05a10 10 0 0 1-9.977-10.664c.344-5.316 4.992-9.336 10.32-9.336 2.34 0 4.227-2.06 3.86-4.367-.484-3.05.445-6.28 2.797-8.633 2.266-2.266 5.344-3.21 8.293-2.844A4.19 4.19 0 0 0 141 355a10 10 0 0 1 10.668-9.977c5.313.344 9.332 4.992 9.332 10.32 0 2.605 2.102 4.797 4.707 4.738 2.633-.062 5.28.9 7.293 2.918s2.98 4.66 2.922 7.293c-.062 2.605 2.133 4.707 4.734 4.707 5.328 0 9.98 4.02 10.324 9.336.375 5.824-4.238 10.664-9.98 10.664zm-10-10c0-11.047-8.953-20-20-20s-20 8.953-20 20 8.953 20 20 20 20-8.953 20-20zm-46-45a5 5 0 1 0 0-10 5 5 0 1 0 0 10zm50 10a5 5 0 1 0 0-10 5 5 0 1 0 0 10zm-60 10a5 5 0 1 0 0-10 5 5 0 1 0 0 10zm-10 40a5 5 0 1 0 0 10 5 5 0 1 0 0-10zm0 0" fill="#6d4336"/><path d="M135 240a5 5 0 1 1-10 0 5 5 0 1 1 10 0zm-5 15a5 5 0 1 0 0 10 5 5 0 1 0 0-10zm50-30a5 5 0 1 0 0 10 5 5 0 1 0 0-10zm-80 80a5 5 0 1 0 0 10 5 5 0 1 0 0-10zm0 0" fill="#fc544d"/><path d="M175 300a5 5 0 1 1-10 0 5 5 0 1 1 10 0zm-75-35a5 5 0 1 0 0 10 5 5 0 1 0 0-10zm10 20a5 5 0 1 0 0 10 5 5 0 1 0 0-10zm50-40a5 5 0 1 0 0 10 5 5 0 1 0 0-10zm0 0" fill="#0cabb9"/><use xlink:href="#B" x="105" y="100" fill="#fdd78d"/><use xlink:href="#C" x="105" y="100" fill="#fff2b4"/><path d="M235.25 457.07C203.926 448.066 181 419.22 181 385s22.926-63.066 54.25-72.07C214.086 327.957 200 354.61 200 385s14.086 57.043 35.25 72.07zm0 0" fill="#fdcb6b"/><path d="M230 325.426c3.207-1.402 6.547-2.562 10-3.437v51.047c-2.5 3.34-4 7.473-4 11.965s1.5 8.625 4 11.965v51.047c-3.453-.875-6.793-2.035-10-3.437zm-20 13.668c-11.738 11.758-19 27.98-19 45.906 0 14.523 4.766 27.93 12.816 38.75 1.457 1.953 4.477.184 3.527-2.06C202.637 410.586 200 398.145 200 385c0-15.445 3.645-29.918 10-42.395v88.316c3.047 3.05 6.398 5.797 10 8.195V330.883c-3.602 2.398-6.953 5.145-10 8.195zm40 64.988v45.633a66.22 66.22 0 0 0 6 .285c1.344 0 2.676-.055 4-.133v-45.27c-1.293.262-2.63.402-4 .402-2.1 0-4.105-.324-6-.918zm0-83.797v45.633c1.895-.594 3.9-.918 6-.918 1.37 0 2.707.14 4 .402v-45.266a64.62 64.62 0 0 0-4-.137 66.22 66.22 0 0 0-6 .285zm20 50.445c3.7 3.63 6 8.68 6 14.27s-2.3 10.64-6 14.27v49.203a64.32 64.32 0 0 0 10-3.07v-120.81c-3.215-1.277-6.555-2.312-10-3.066zm20-41.13v110.797a65.22 65.22 0 0 0 10-7.566v-95.664a64.97 64.97 0 0 0-10-7.566zm0 0" fill="#ffe899"/><use xlink:href="#B" x="210" y="100" fill="#fdd78d"/><use xlink:href="#C" x="210" y="100" fill="#925b44"/><path d="M340.25 457.07C308.926 448.066 286 419.22 286 385s22.926-63.066 54.25-72.07C319.086 327.957 305 354.61 305 385s14.086 57.043 35.25 72.07zm0 0" fill="#fdcb6b"/><path d="M305 385c0 18.605 5.285 35.8 14.234 49.793C305.035 422.87 296 404.992 296 385s9.035-37.87 23.234-49.793C310.285 349.2 305 366.395 305 385zm0 0" fill="#6d4336"/><path d="M350 340a5 5 0 1 1-10 0 5 5 0 1 1 10 0zm-5 75a5 5 0 1 0 0 10 5 5 0 1 0 0-10zm40-10a5 5 0 1 0 0 10 5 5 0 1 0 0-10zm-70-10a5 5 0 1 0 0 10 5 5 0 1 0 0-10zm75-35a5 5 0 1 0 0 10 5 5 0 1 0 0-10zm-15-25a5 5 0 1 0 0 10 5 5 0 1 0 0-10zm0 0" fill="#fd8e82"/><path d="M320 370a5 5 0 1 1-10 0 5 5 0 1 1 10 0zm10 10a5 5 0 1 0 0 10 5 5 0 1 0 0-10zm20-30a5 5 0 1 0 0 10 5 5 0 1 0 0-10zm55 35a5 5 0 1 0 0 10 5 5 0 1 0 0-10zm0-40a5 5 0 1 0-10 0 5 5 0 1 0 10 0zm0 0" fill="#fdbf43"/><path d="M451 420v1.848C404.043 477.004 334.113 512 256 512s-148.043-34.996-195-90.152V420h170.508a4.99 4.99 0 0 1 4.891 4c1.855 9.13 9.926 16 19.602 16s17.746-6.87 19.602-16a4.99 4.99 0 0 1 4.891-4zm0 0" fill="#fbc56d"/><defs ><path id="B" d="M151 210c-41.422 0-75 33.578-75 75s33.578 75 75 75 75-33.578 75-75-33.578-75-75-75zm0 95c-11.047 0-20-8.953-20-20s8.953-20 20-20 20 8.953 20 20-8.953 20-20 20zm0 0"/><path id="C" d="M151 220c-35.898 0-65 29.102-65 65s29.102 65 65 65 65-29.102 65-65-29.102-65-65-65zm0 85c-11.047 0-20-8.953-20-20s8.953-20 20-20 20 8.953 20 20-8.953 20-20 20zm0 0"/></defs></svg>