<svg xmlns="http://www.w3.org/2000/svg" viewBox="0 0 512 512"><path d="M512 256c0 141.387-114.613 256-256 256S0 397.387 0 256 114.613 0 256 0s256 114.613 256 256zm0 0" fill="#016a74"/><path d="M255.633 270.512l-14.14-14.145a5 5 0 0 1 0-7.07l237.805-237.81a5 5 0 0 1 7.07 0l14.14 14.145a5 5 0 0 1 0 7.07l-237.805 237.81c-1.953 1.95-5.117 1.95-7.07 0zm0 0" fill="#49cb5c"/><path d="M253.156 268.035c-3.316-3.32-3.316-8.7 0-12.02L471.87 37.3c3.32-3.32 8.703-3.32 12.023 0s3.316 8.7 0 12.02L265.18 268.035c-3.32 3.32-8.703 3.32-12.023 0zm0 0" fill="#73d37a"/><path d="M420.473 283.863c-41.008 41.004-117.3 31.19-170.414-21.922s-62.926-129.406-21.922-170.414c32.078-32.074 85.746-33.047 133.02-6.53 2.82 1.582 5.195 3.848 6.94 6.566 6.504 10.133 14.31 19.883 23.383 28.957s18.824 16.88 28.957 23.383c2.72 1.746 4.984 4.12 6.566 6.94 26.516 47.273 25.543 100.94-6.53 133.02zm0 0" fill="#738c96"/><g fill="#87a0af"><path d="M245.6 245.195c-22.676-46.305-19.25-98.13 12.953-130.332 27.828-27.828 70.313-34.16 111.227-20.734 3.543 5.3 7.457 10.48 11.71 15.512l-.152-.18zm181.414-94.352c-1.582-2.82-3.848-5.195-6.566-6.94-6.13-3.934-12.113-8.352-17.898-13.23L261.78 271.43l2.61 3.363c51.77 41.574 118.637 46.512 156.078 9.07 32.078-32.078 33.05-85.746 6.535-133.02zm0 0"/><path d="M427.762 303.44l-14.145 14.145c-3.902 3.902-10.234 3.902-14.14 0l-1.937-1.937-235.3 178.633c-65.965-25.977-118.543-78.555-144.52-144.52l178.633-235.3-1.937-1.937c-3.902-3.902-3.902-10.234 0-14.14l14.145-14.14a10 10 0 0 1 14.141 0L427.762 289.3c3.902 3.906 3.902 10.238 0 14.14zm0 0"/></g><path d="M307.55 225.66l89.988 89.988-235.3 178.633-3.477-1.398c-82.316-33.824-109.6-137.035-55.777-207.918l113.87-150 69.484 69.484-84.855 84.852 21.215 21.215zm-7.07-35.355l14.14-14.14-71.418-71.418a10 10 0 0 0-14.141 14.141zm127.28 98.996l-91.926-91.922-14.14 14.14 91.922 91.922c3.906 3.906 10.238 3.906 14.145 0s3.902-10.234 0-14.14zm0 0" fill="#9bb9c3"/><path d="M51.137 353.25l118.4-155.973c10.07-13.27 29.54-14.594 41.316-2.816 4.32 4.32 7.078 9.957 7.836 16.02l4.977 39.82c5.18 41.457 24.035 80.004 53.578 109.547a6 6 0 0 1-.617 9.02l-119.31 90.578c-4.777 3.625-11.5 3.168-15.742-1.074l-89.38-89.38c-4.238-4.242-4.7-10.965-1.07-15.742zm0 0" fill="#fc9302"/><path d="M49.414 355.527l92.3-121.582c2.2-2.895 6.45-3.187 9.023-.613a187.86 187.86 0 0 0 109.543 53.574l39.82 4.98c6.063.758 11.7 3.512 16.02 7.836 11.777 11.777 10.453 31.242-2.812 41.313L155.035 461.19a10.01 10.01 0 0 1-12.09.004c-34.78-26.367-65.836-57.312-92.328-92l-1.187-1.55a10 10 0 0 1-.016-12.117zm0 0" fill="#fcb30b"/></svg>