<svg xmlns="http://www.w3.org/2000/svg" viewBox="0 0 554.244 289.314" fill="#ed1c24" fill-rule="evenodd"><path d="M132.378 13.913H86.742l-.95 32.25h45.848l.738-32.25m-79.258 0H7.905C8.116 44.794 5.48 116.885 0 230.08l43.424.2c0-27.93 3.162-100.022 9.696-216.38m76.307 56.495h-44.16C84 141.548 82 194.773 79.364 230.08l46.586.2c-.316-14.228.843-67.453 3.477-159.887m24.03-.947l-5.48 32.462 22.66-.2-4.005 128.374 44.9.2 1.16-128.163h29.5l6.535-33h-36.784v-4.954c0-13.5 1.686-21.5 4.954-23.714 4.005-3.058 16.864-4.32 38.47-4.005l6.007-30.25c-17.917-.844-30.986-.844-39.208 0C206.472 7.27 194.352 11.59 185.92 19.6c-8.116 7.694-12.542 22.766-13.386 45.1v4.743H153.46m233.558 24.78c-13.913-17.496-33.832-26.244-59.76-26.244-21.185-.42-39.42 5.375-55.016 17.285-20.342 15.6-31.515 37.205-33.516 65.03-1.793 24.873 4.53 45.004 19.182 60.18 13.5 13.913 32.673 21.3 57.44 22.133 22.03.632 42.054-1.265 60.288-5.48l6.43-33c-14.65 6.43-33.305 9.697-55.754 9.697-20.764 0-33.622-6.008-38.893-17.918-3.16-6.745-4.742-13.806-4.742-21.3l.95-9.17H401.46l.422-3.7c1.475-23.82-3.477-43-14.86-57.546zm-88.534 9.907c6.85-7.272 16.02-10.96 27.826-10.856 11.697-.105 20.656 4.426 26.77 13.385 4.637 7.38 6.43 15.6 5.48 24.77l-.526 4.005-72.197-.316c.74-12.33 4.954-22.66 12.647-30.986m179.282 9.484l1.054-42.475h-50.38l-.95 42.475h50.275m60.286-67.77C528.248 21.5 521.187 6.22 516.972 0h-29.3c13.596 24.663 22.134 51.75 25.823 81.366 1.8 14.44 2.425 35.308 1.686 62.5-.526 34.36-7.904 69.035-22.132 103.922a355.48 355.48 0 0 1-20.026 41.526H505.6c8.75-13.28 16.547-27.087 23.187-41.526 3.163-6.85 6.114-13.807 8.748-20.87 10.54-29.195 16.126-56.387 16.654-81.577.738-36.784-4.637-69.88-16.126-99.495m-115.517 143.13l-1.054 42.158h50.8l1.054-42.158h-50.8"/></svg>