<svg xmlns="http://www.w3.org/2000/svg" viewBox="0 0 512 512"><path d="M512 256c0 50.488-14.617 97.574-39.852 137.227-26.738 42.035-65.402 75.734-111.22 96.352C328.914 503.984 293.398 512 256 512 114.613 512 0 397.387 0 256S114.613 0 256 0s256 114.613 256 256zm0 0" fill="#7cbfbf"/><path d="M300.574 116.14v142.973c0 40.992-60.656 74.207-135.48 74.207-16.582 0-32.465-1.63-47.145-4.617-51.586-10.48-88.348-37.68-88.348-69.6V116.14zm0 0" fill="#3d3d3d"/><path d="M117.95 116.14v212.563c-51.586-10.48-88.348-37.68-88.348-69.6V116.14zm0 0" fill="#141318"/><path d="M300.578 116.14c0-40.988-60.656-74.21-135.484-74.21S29.605 75.152 29.605 116.14s60.66 74.21 135.488 74.21 135.484-33.227 135.484-74.21zm0 0" fill="#e6e6e6"/><path d="M236.406 116.14c0 16.73-19.184 30.992-46.16 36.563-4.945 1.023-10.148 1.742-15.55 2.14-3.133.238-6.34.355-9.602.355-12.945 0-25.078-1.89-35.535-5.184-4.21-1.336-8.152-2.895-11.766-4.648C103.06 138.22 93.78 127.77 93.78 116.14c0-17.922 22.016-33.02 52.043-37.63a125.35 125.35 0 0 1 10.48-1.148c2.875-.187 5.813-.293 8.79-.293 5.777 0 11.398.38 16.78 1.098 4.902.637 9.602 1.566 14.043 2.738 23.95 6.29 40.488 19.707 40.488 35.234zm0 0" fill="#dd3d88"/><path d="M197.016 139.234c-1.816 4.93-4.098 9.434-6.77 13.47-4.945 1.023-10.148 1.742-15.55 2.14 14.652-13.637 19.27-37.617 15.55-57.25-1.62-8.56-4.62-15.32-8.37-19.426a111.33 111.33 0 0 1 14.043 2.738c1.996 4.262 3.555 9.215 4.598 14.742 2.72 14.348 1.44 30.23-3.5 43.586zM153.44 119.4c-4.617 12.035-12.62 22.277-23.883 30.625-4.2-1.336-8.152-2.895-11.766-4.648 12.6-7.797 21.273-17.723 25.86-29.625 5.277-13.656 4.2-27.543 2.172-37.23a125.35 125.35 0 0 1 10.48-1.148c2.184 11.035 3.117 26.457-2.863 42.027zm0 0" fill="#c12038"/><path d="M472.148 273.586v119.64c-26.738 42.035-65.402 75.734-111.22 96.352-7.867.78-15.977 1.19-24.262 1.19-16.586 0-32.47-1.633-47.148-4.62-51.586-10.48-88.344-37.68-88.344-69.6V273.586zm0 0" fill="#3d3d3d"/><path d="M289.52 273.582v212.563c-51.586-10.48-88.348-37.68-88.348-69.6V273.582zm0 0" fill="#141318"/><path d="M472.152 273.582c0-40.984-60.66-74.21-135.488-74.21s-135.488 33.227-135.488 74.21 60.66 74.21 135.488 74.21 135.488-33.227 135.488-74.21zm0 0" fill="#e6e6e6"/><path d="M407.98 273.586c0 2.684-.492 5.31-1.44 7.848-1.254 3.363-3.3 6.57-6.03 9.56-3.008 3.313-6.832 6.344-11.355 9.04-13.043 7.754-31.723 12.613-52.484 12.613a141.39 141.39 0 0 1-4.098-.062c-8.62-.273-16.832-1.37-24.367-3.176-25.223-6.02-42.852-19.793-42.852-35.82 0-7.336 3.688-14.2 10.113-20.062 2.73-2.496 5.957-4.816 9.605-6.906 4.063-2.332 8.652-4.398 13.664-6.125 3.242-1.117 6.668-2.1 10.23-2.914 8.516-1.973 17.88-3.062 27.703-3.062a130.79 130.79 0 0 1 13.719.723c5.13.555 10.063 1.398 14.73 2.52h.012c23.645 5.64 40.625 18.105 42.64 32.86a21.59 21.59 0 0 1 .211 2.969zm0 0" fill="#dd3d88"/><path d="M332.57 312.582c-8.62-.273-16.832-1.37-24.367-3.176-13.687-11.086-21.64-23.7-26.238-34.242a94.85 94.85 0 0 1-6.5-21.641c2.73-2.496 5.957-4.816 9.605-6.906.625 5.965 2.3 14.992 6.656 24.785 8.023 18.066 21.723 31.867 40.844 41.18zm67.938-21.6c-3.008 3.313-6.832 6.344-11.355 9.04-24.7-3.93-51.2-13.227-71.473-33.195-9.812-9.664-15.633-19.352-18.945-26.344a99.54 99.54 0 0 1 10.23-2.914c3.063 6.07 8.203 14.2 16.512 22.266 17.773 17.254 43.434 27.867 75.03 31.148zm7.472-17.406c0 2.684-.492 5.3-1.44 7.848-30.793-11.56-48.684-34.516-56.152-46.195 5.13.555 10.063 1.398 14.73 2.52h.012c8.316 10.543 22.3 24.48 42.64 32.86a21.59 21.59 0 0 1 .211 2.969zm0 0" fill="#c12038"/></svg>