<svg xmlns="http://www.w3.org/2000/svg" viewBox="0 0 512 512"><path d="M512 256c0 141.387-114.613 256-256 256S0 397.387 0 256 114.613 0 256 0s256 114.613 256 256zm0 0" fill="#925b44"/><path d="M503.934 320C475.516 430.414 375.285 512 256 512S36.484 430.414 8.066 320zm0 0" fill="#6d4336"/><path d="M447 255.988v10c0 10.06-8.152 18.21-18.215 18.21H83.215C73.152 284.2 65 276.047 65 265.988v-10c0-10.06 8.152-18.215 18.215-18.215h.19l53.21-157.03C144.87 56.387 167.73 40 193.445 40h125.11c25.715 0 48.574 16.387 56.828 40.742l53.21 157.03h.19c10.063 0 18.215 8.156 18.215 18.215zm0 0" fill="#738c96"/><path d="M428.79 284.2H108.215C98.152 284.2 90 276.047 90 265.988v-10c0-10.06 8.152-18.215 18.215-18.215h.19l53.21-157.03C169.87 56.387 192.73 40 218.445 40h100.11c25.715 0 48.574 16.387 56.828 40.742l53.21 157.03h.19c10.063 0 18.215 8.156 18.215 18.215v10c0 10.06-8.152 18.21-18.21 18.21zm0 0" fill="#87a0af"/><path d="M194.133 105.766c7.6-2.734 15.48-2.895 22.72-.945 4.332-6.12 10.508-11.03 18.098-13.766 19.16-6.9 40.234 2.547 47.938 21.176 14.152 1.363 26.95 10.656 32.1 24.918 7.113 19.723-3.113 41.477-22.84 48.586-19.16 6.9-40.23-2.547-47.938-21.176-2.113-.203-4.19-.586-6.223-1.133-4.328 6.12-10.504 11.03-18.094 13.766-19.727 7.113-41.48-3.113-48.6-22.84s3.117-41.477 22.84-48.586zm0 0" fill="#ade4ad"/><path d="M357.785 141.734c3.45 7.293 4.367 15.13 3.117 22.523a37.77 37.77 0 0 1 15.441 16.691c8.715 18.4 1.32 40.293-16.48 49.75-.004 14.215-8.023 27.848-21.727 34.332-18.95 8.97-41.586.875-50.555-18.078-8.71-18.406-1.32-40.29 16.48-49.746 0-2.12.184-4.23.535-6.305a37.77 37.77 0 0 1-15.441-16.691c-8.97-18.95-.88-41.582 18.074-50.555s41.586-.875 50.555 18.078zm0 0" fill="#49cb5c"/><path d="M241.734 176.14c7.293-3.45 15.13-4.367 22.523-3.117a37.75 37.75 0 0 1 16.691-15.441c18.4-8.715 40.293-1.324 49.75 16.48 14.215 0 27.848 8.023 34.332 21.727 8.97 18.95.875 41.582-18.078 50.555-18.406 8.71-40.29 1.32-49.746-16.48-2.12 0-4.23-.184-6.305-.535a37.77 37.77 0 0 1-16.691 15.441c-18.95 8.97-41.582.875-50.555-18.074s-.875-41.586 18.078-50.555zm0 0" fill="#ade4ad"/><path d="M285.387 81.012c1.28-1.28 3.355-1.344 4.68-.105l1.332 1.28c24.805 24.805 24.805 65.023 0 89.828s-65.023 24.805-89.828 0l-1.28-1.332c-1.238-1.324-1.172-3.398.105-4.68zm0 0" fill="#e84444"/><path d="M299.234 162.484a64.04 64.04 0 0 1-7.836 9.531c-24.805 24.805-65.023 24.805-89.828 0l-1.28-1.328c-1.238-1.324-1.172-3.402.105-4.684l15.105-15.105c1.094 1.28 2.227 2.54 3.438 3.75 21.832 21.832 55.602 24.438 80.297 7.836zm0 0" fill="#d73131"/><path d="M285.402 80.996c1.3-1.3 3.418-1.336 4.742-.055l.32.316c18.375 18.375 13.16 53.38-11.645 78.18s-59.81 30.02-78.18 11.645c-.11-.105-.21-.215-.316-.32-1.285-1.324-1.246-3.44.055-4.742zm0 0" fill="#fd6c55"/><path d="M272.832 145.566a7.88 7.88 0 0 1-7.883 7.883c-3.328 0-6.297-2.086-7.422-5.22l-5.047-14.047a.85.85 0 0 1 1.086-1.086l14.047 5.047c3.133 1.125 5.22 4.094 5.22 7.422zm15.082-36.617a7.88 7.88 0 0 0-8.934-1.555l-13.504 6.367a.85.85 0 0 0 0 1.531l13.504 6.363a7.88 7.88 0 0 0 8.934-1.555c3.082-3.078 3.082-8.07 0-11.152zm0 0" fill="#fc544d"/><path d="M142.508 193.8c4.078-6.96 10.035-12.137 16.848-15.273a37.78 37.78 0 0 1 5.082-22.164c10.297-17.574 32.535-23.805 50.383-14.43 11.742-8.012 27.523-9.07 40.605-1.4 18.1 10.598 24.164 33.855 13.566 51.945-10.293 17.574-32.53 23.805-50.38 14.434-1.754 1.195-3.598 2.23-5.508 3.113.594 7.473-1.004 15.2-5.082 22.16-10.598 18.094-33.855 24.168-51.945 13.57s-24.168-33.852-13.57-51.945zm0 0" fill="#49cb5c"/><path d="M161.504 208.496c9.762 9.766 11.344 24.012 3.535 31.82s-22.06 6.23-31.82-3.535-11.348-24.008-3.535-31.82 22.055-6.227 31.82 3.535zm228.812-18.812c-7.81-7.812-22.055-6.23-31.82 3.535s-11.344 24.008-3.535 31.82 22.06 6.227 31.82-3.535 11.348-24.012 3.535-31.82zm0 0" fill="#fda800"/><path d="M161.504 208.496c9.762 9.766 11.344 24.012 3.535 31.82l-.03.03c-1.84 1.828-4.633 2.34-7.04 1.38-5.914-2.36-12.105-6.445-17.68-12.016s-9.656-11.766-12.016-17.68c-.96-2.406-.45-5.2 1.38-7.04l.03-.03c7.81-7.81 22.055-6.227 31.82 3.535zm228.844-18.78c-.008-.012-.02-.02-.03-.03-7.81-7.812-22.055-6.227-31.82 3.535s-11.344 24.012-3.53 31.82c.008.012.02.02.027.03 1.84 1.828 4.633 2.34 7.04 1.38 5.914-2.36 12.11-6.445 17.68-12.016s9.656-11.77 12.016-17.68c.96-2.406.45-5.203-1.38-7.04zm0 0" fill="#fdbf43"/><path d="M217.516 239.234a64.24 64.24 0 0 1-9.531-7.836c-24.805-24.805-24.805-65.023 0-89.828.438-.434.883-.863 1.332-1.28 1.324-1.238 3.398-1.172 4.68.105l15.105 15.105c-1.28 1.094-2.54 2.227-3.75 3.438-21.832 21.832-24.437 55.602-7.836 80.297zm0 0" fill="#d73131"/><path d="M299.004 225.402c1.3 1.3 1.336 3.418.055 4.742l-.316.32c-18.375 18.375-53.38 13.16-78.18-11.645s-30.02-59.81-11.645-78.18c.105-.11.215-.21.32-.316 1.324-1.285 3.44-1.246 4.742.055zm0 0" fill="#fd6c55"/><path d="M246.902 193.563l-5.047 14.05c-1.125 3.133-4.094 5.22-7.422 5.22-4.352 0-7.883-3.527-7.883-7.883 0-3.328 2.086-6.297 5.22-7.422l14.05-5.047a.85.85 0 0 1 1.082 1.082zm-12.996-20.422l-13.504-6.363c-3.008-1.418-6.586-.797-8.937 1.555a7.89 7.89 0 0 0 0 11.152c2.352 2.352 5.93 2.973 8.938 1.555l13.504-6.363a.85.85 0 0 0 0-1.535zm38.7 45.84l-6.367-13.504a.85.85 0 0 0-1.531 0l-6.363 13.504c-1.422 3.008-.797 6.582 1.555 8.934a7.88 7.88 0 0 0 11.148 0c2.355-2.352 2.977-5.926 1.56-8.934zm0 0" fill="#fc544d"/><path d="M286.855 217.375c7.293-3.45 15.13-4.367 22.523-3.117a37.79 37.79 0 0 1 16.691-15.441c18.4-8.715 40.293-1.324 49.75 16.48 14.215.004 27.848 8.023 34.332 21.727 8.97 18.95.875 41.586-18.074 50.555-18.4 8.71-40.293 1.32-49.75-16.48a37.69 37.69 0 0 1-6.301-.535 37.77 37.77 0 0 1-16.691 15.441c-18.953 8.97-41.586.88-50.555-18.074s-.875-41.586 18.074-50.555zm0 0" fill="#49cb5c"/><path d="M153.047 217.375c7.293-3.45 15.13-4.367 22.523-3.117a37.77 37.77 0 0 1 16.691-15.441c18.4-8.715 40.293-1.324 49.75 16.48 14.215.004 27.844 8.023 34.332 21.727 8.97 18.95.875 41.586-18.078 50.555-18.4 8.71-40.29 1.32-49.746-16.48a37.7 37.7 0 0 1-6.305-.535 37.77 37.77 0 0 1-16.691 15.441c-18.95 8.97-41.586.88-50.555-18.074s-.875-41.586 18.078-50.555zm0 0" fill="#ade4ad"/><path d="M183.102 222.336a6 6 0 0 1-4.102 7.426c-.56.164-1.117.238-1.668.238-2.605 0-5.004-1.71-5.762-4.34-1.027-3.56-1.57-7.6-1.57-11.66 0-3.312 2.688-6 6-6s6 2.688 6 6c0 2.96.38 5.844 1.102 8.336zM334 140c-4.07 0-8.102.543-11.66 1.57-2.63.758-4.34 3.156-4.34 5.762 0 .55.074 1.11.238 1.668a6 6 0 0 0 7.426 4.102C328.156 152.38 331.04 152 334 152c3.313 0 6-2.687 6-6s-2.687-6-6-6zm27.762 94.336a6 6 0 0 0-7.426-4.102c-2.492.723-5.375 1.102-8.336 1.102-3.312 0-6 2.688-6 6s2.688 6 6 6c4.07 0 8.102-.543 11.66-1.57 2.63-.758 4.34-3.156 4.34-5.762 0-.55-.074-1.11-.238-1.668zm-156.2-23.652a6 6 0 0 0-7.141 1.008c-.39.387-.734.84-1.012 1.344a6 6 0 0 0 2.352 8.152c2.273 1.254 4.578 3.023 6.672 5.117 2.344 2.344 6.145 2.344 8.488 0s2.34-6.14 0-8.484c-2.883-2.88-6.117-5.344-9.36-7.137zm0 0" fill="#07b128"/><path d="M189.762 142.336c.922 3.184-.914 6.508-4.102 7.426a5.85 5.85 0 0 1-1.664.238c-2.605 0-5.004-1.71-5.762-4.34-1.027-3.56-1.57-7.6-1.57-11.66 0-3.312 2.688-6 6-6s6 2.688 6 6c0 2.96.38 5.844 1.098 8.336zm146.61 29.4c-.387-.39-.84-.734-1.344-1.012-2.902-1.602-6.55-.547-8.152 2.352-1.254 2.273-3.023 4.578-5.117 6.672a6 6 0 0 0 8.484 8.484c2.88-2.875 5.348-6.11 7.137-9.355a6 6 0 0 0-1.008-7.141zM218.887 100.75c-2.395-1.324-5.3-.836-7.145 1.008a5.99 5.99 0 0 0-1.008 1.344 6 6 0 0 0 2.352 8.152c2.27 1.254 4.578 3.023 6.672 5.117a6 6 0 0 0 8.484-8.484c-2.88-2.88-6.113-5.348-9.355-7.137zm90.016 101.87c-2.395-1.32-5.3-.836-7.145 1.008-.387.387-.73.84-1.012 1.344-1.598 2.902-.547 6.55 2.355 8.152 2.27 1.254 4.578 3.023 6.672 5.117a6 6 0 0 0 8.484-8.484c-2.88-2.88-6.113-5.348-9.355-7.137zm0 0" fill="#058b1c"/><path d="M429.426 275.56L386.922 413.66c-2.586 8.39-10.336 14.117-19.117 14.117h-223.61a20 20 0 0 1-19.113-14.117L82.574 275.56zm0 0" fill="#87a0af"/><path d="M446.984 271.863c-.328 6.973-6.336 12.336-13.312 12.336h-6.906l-39.844 129.46c-2.586 8.39-10.336 14.117-19.117 14.117h-108.7c-60.78 0-114.453-39.64-132.332-97.73-4.02-13.055 5.742-26.27 19.398-26.27h243.5c5.492 0 10.207-4.29 10.324-9.78.102-4.617-2.93-8.535-7.117-9.793H77.965c-7.367 0-13.3-6.145-12.95-13.6.328-6.973 6.332-12.34 13.313-12.34h355.707c7.367 0 13.3 6.145 12.95 13.6zm0 0" fill="#b4d2d7"/><path d="M434.035 284.2h-321.5c-7.16 0-12.965-5.8-12.965-12.96a12.97 12.97 0 0 1 12.965-12.965h321.5A12.97 12.97 0 0 1 447 271.238c0 7.16-5.805 12.96-12.965 12.96zm0 0" fill="#e1ebf0"/><path d="M133.9 368h84.227c19.816 0 36.977 11.31 45.422 27.816h180.754c8.207 0 15.023 6.414 15.434 14.613a198.94 198.94 0 0 1 .254 10.039 200.66 200.66 0 0 1-.121 6.871c-.29 8.293-7.148 14.84-15.445 14.84H263.56c-8.44 16.512-25.605 27.82-45.422 27.82H133.9c-2.133 0-3.863-1.73-3.863-3.863 0-11.523 9.34-20.863 20.863-20.863h57.184a6.96 6.96 0 0 0 6.953-6.957c0-3.84-3.113-6.953-6.953-6.953h-58.156c-7.566 0-14.598-3.898-18.61-10.316a3.86 3.86 0 0 1 0-4.098 21.94 21.94 0 0 1 18.609-10.312h58.156a6.96 6.96 0 0 0 6.953-6.957c0-3.84-3.113-6.953-6.953-6.953H150.9c-11.523 0-20.863-9.34-20.863-20.863 0-2.133 1.727-3.863 3.863-3.863zm0 0" fill="#fff2b4"/><path d="M459.977 417.496l.023 2.973-.12 6.87c-.29 8.293-7.148 14.84-15.445 14.84H263.56c-8.44 16.512-25.605 27.82-45.422 27.82H133.9c-2.133 0-3.863-1.73-3.863-3.863 0-11.094 8.66-20.164 19.586-20.82h51.504l5.12-.043s3.207-.105 3.844-.297c13.082-1.504 24.652-7.953 32.8-17.437 5.43-6.316 13.28-10.043 21.613-10.043zm0 0" fill="#ffe899"/></svg>