<svg xmlns="http://www.w3.org/2000/svg" viewBox="0 -63 512 511"><path d="M218.53 366.453a10.07 10.07 0 0 0-7.07 2.93 10.08 10.08 0 0 0-2.93 7.07 10.08 10.08 0 0 0 2.93 7.07c1.86 1.86 4.438 2.93 7.07 2.93a10.08 10.08 0 0 0 7.07-2.93 10.06 10.06 0 0 0 2.93-7.07 10.08 10.08 0 0 0-2.93-7.07c-1.863-1.86-4.44-2.93-7.07-2.93zm199.177-167.887L394.402 93.28c6.3-.852 11.836-4.05 15.738-8.684 4.605 2.88 10.04 4.55 15.86 4.55h20a10 10 0 0 0 10-10v-40a10 10 0 0 0-10-10h-20c-5.992 0-11.578 1.773-16.27 4.816-4.578-5.176-11.262-8.45-18.7-8.45H332c-10.605 0-19.684 6.652-23.297 16H285c-14.336 0-26 11.664-26 26s11.664 26 26 26h51.473v20.152a10 10 0 1 0 20 0V93.516h17.5l25.102 113.418-47.508 84.617c-5.2 9.2-14.98 14.934-25.555 14.934H207.414c-4.965-41.637-40.465-74.03-83.414-74.03-19.004 0-36.934 6.2-51.852 17.902l-.06.047c-17.762 13.97-28.926 34.016-31.527 56.082H20.02c1.305-71.9 60.2-129.97 132.383-129.97h70.938c5.598 0 10.156 4.56 10.156 10.16v89.8a10 10 0 0 0 10 10h53.2a59.65 59.65 0 0 0 52.203-30.801c4.855-8.8 7.43-18.742 7.438-28.777l.05-33.223c.008-5.523-4.465-10.008-9.988-10.016-5.527 0-10.004 4.47-10.012 9.984l-.05 33.23a39.74 39.74 0 0 1-4.94 19.13c-6.977 12.625-20.273 20.47-34.7 20.47H253.5v-79.8c0-5.12-1.3-9.95-3.55-14.18 8.984-5.2 15.047-14.895 15.047-25.992 0-16.543-13.46-30-30-30h-36.5a29.86 29.86 0 0 0-10 1.719V30.5c0-16.543-13.46-30-30-30H93.984C47.22.5 8.328 34.836 1.18 79.617a10 10 0 0 0-.465 3.016c0 .063.008.12.008.18A94.44 94.44 0 0 0 0 94.484v52.02c0 15.02 11.098 27.496 25.523 29.664l22.145 22.145C18.328 226.1 0 265.414 0 308.926v7.56a10 10 0 0 0 10 10h56.2a10.13 10.13 0 0 0-.2 2c0 14.512 5.37 27.8 14.215 37.97H10c-5.523 0-10 4.48-10 10a10 10 0 0 0 10 10l114 .03c31.98 0 58-26.02 58-58a10.13 10.13 0 0 0-.2-2H326c15.746 0 30.46-7.547 39.684-20.03h12.664A57.93 57.93 0 0 0 374 328.484c0 14.512 5.37 27.8 14.215 37.97H258.53c-5.523 0-10 4.48-10 10a10 10 0 0 0 10 10l173.47.03c31.98 0 58-26.02 58-58a57.93 57.93 0 0 0-4.359-22.031H502a10 10 0 0 0 10-10c0-52.785-41.973-95.953-94.293-97.887zm-219.2-62.062h36.5c5.512 0 10 4.484 10 10s-4.488 10-10 10h-36.5c-5.516 0-10-4.488-10-10s4.484-10 10-10zM20 94.484c0-.617.03-1.23.047-1.848h109.426a10 10 0 1 0 0-20H23.297c9.344-30.164 37.496-52.133 70.688-52.133h64.508a10.01 10.01 0 0 1 10 10v116c0 5.512-4.484 10-10 10H30.004c-5.52 0-10.004-4.488-10.004-10zm34.145 82.02h22.883c-4.805 2.742-9.44 5.746-13.902 8.98zM162 328.484c0 20.824-16.84 37.78-37.613 37.988-.13-.004-.258-.02-.387-.02h-1.152C102.426 365.84 86 349.05 86 328.484a10.13 10.13 0 0 0-.2-2h76.4a10.13 10.13 0 0 0-.2 2zm-101.258-22c2.477-15.887 10.82-30.238 23.707-40.36.03-.02.06-.047.1-.066 11.352-8.898 24.996-13.605 39.46-13.605 31.906 0 58.434 23.457 63.25 54.03zM426 49.148h10v20h-10a10.01 10.01 0 0 1-10-10 10.01 10.01 0 0 1 10-10zM279 67.516a6.01 6.01 0 0 1 6-6h22.03v7.03a25.07 25.07 0 0 0 .496 4.969H285a6.01 6.01 0 0 1-6-6zm67.473 6H332c-2.738 0-4.97-2.227-4.97-4.97V50.484a4.98 4.98 0 0 1 4.97-4.968h59.03a4.98 4.98 0 0 1 4.97 4.968v18.063c0 2.742-2.23 4.97-4.97 4.97zM470 328.484c0 20.824-16.84 37.78-37.613 37.988-.13-.004-.258-.02-.387-.02h-1.152C410.426 365.84 394 349.05 394 328.484a37.94 37.94 0 0 1 7.039-22.031h61.922A37.94 37.94 0 0 1 470 328.484zm-92.637-42.03l38.133-67.918c38.94.715 71.004 30.1 75.863 67.918zm0 0"/><path d="M346.473 163.668a10 10 0 1 0 0-20h-.035c-5.523 0-9.984 4.477-9.984 10s4.496 10 10.02 10zm0 0"/></svg>