<svg xmlns="http://www.w3.org/2000/svg" xmlns:xlink="http://www.w3.org/1999/xlink" viewBox="0 0 512 512"><path d="M487.074 323.93c7.973 0 13.637 7.844 11.043 15.383C463.55 439.793 368.215 512 256 512 129.95 512 25.18 420.898 3.934 300.95c-.55-3.105 1.848-5.953 5-5.953h210.28c42.64 0 77.207-34.566 77.207-77.21V17.246c0-7.434 6.87-12.984 14.14-11.406 21.848 4.746 42.656 12.28 62.035 22.215 8.31 4.258 13.473 12.87 13.473 22.207V318.93a5 5 0 0 0 5 5zm0 0" fill="#ebae56"/><path d="M370 335V26.742C454.168 68.676 512 155.578 512 256c0 29.426-4.98 57.684-14.117 84H375a5 5 0 0 1-5-5zm0 0" fill="#fff2b4"/><path d="M512 256c0 10.703-.668 21.254-1.94 31.613-17.602 12.535-39.137 19.9-62.39 19.9C388.203 307.523 340 259.32 340 199.855S388.203 92.188 447.668 92.188c1.73 0 3.45.047 5.16.13C489.77 136.69 512 193.746 512 256zM0 256a257.62 257.62 0 0 0 4.086 45.773c10.656 5.258 22.648 8.223 35.336 8.223h192c44.184 0 80-35.816 80-80V6.035C293.574 2.094 275.03 0 256 0 114.613 0 0 114.613 0 256zm0 0" fill="#607882"/><path d="M420.75 304.133C374.313 292.18 340 250.023 340 199.855s34.313-92.324 80.75-104.273C386.422 115.246 363 154.56 363 199.855s23.422 84.61 57.75 104.277zM150 22.914C100.648 45.395 59.7 83.1 33.12 130H140a10 10 0 0 0 10-10zm20-8.094V120a10 10 0 0 0 10 10h106.422a10 10 0 0 0 10-10V3.188C283.254 1.098 269.758 0 256 0c-30.172 0-59.117 5.234-86 14.82zM0 256a258.84 258.84 0 0 0 1.375 26.648c10.707 7.758 23.848 12.348 38.047 12.348h192c35.898 0 65-29.102 65-65V160a10 10 0 0 0-10-10H22.914C8.203 182.3 0 218.19 0 256zm0 0" fill="#495959"/><path d="M362.586 199.855c0-46.988 38.094-85.078 85.078-85.078a84.97 84.97 0 0 1 24.168 3.504c25.344 39.633 40.066 86.71 40.16 137.223-15.598 18.016-38.625 29.43-64.328 29.43-46.984 0-85.078-38.1-85.078-85.078zm0 0" fill="#8f4a4b"/><path d="M393.574 154.336c-1.105-1.102-1.656-2.547-1.656-3.992s.55-2.89 1.656-3.992c14.29-14.293 33.293-22.164 53.504-22.164 11.5 0 22.61 2.56 32.684 7.387a255.36 255.36 0 0 1 10.125 20.211c-11.805-10.535-26.86-16.305-42.81-16.305-17.195 0-33.36 6.695-45.52 18.855-2.203 2.207-5.78 2.207-7.984 0zm15.973 83.055c20.695 20.695 54.367 20.695 75.066 0 2.203-2.207 2.203-5.78 0-7.988s-5.78-2.203-7.988 0c-16.293 16.293-42.8 16.293-59.094 0-2.207-2.203-5.78-2.203-7.988 0-1.102 1.105-1.652 2.55-1.652 3.996a5.63 5.63 0 0 0 1.656 3.992zm15.97-15.973c11.89 11.887 31.234 11.887 43.125 0 2.207-2.207 2.207-5.78 0-7.984s-5.78-2.207-7.984-.004c-7.488 7.488-19.668 7.488-27.152 0a5.65 5.65 0 0 0-7.988.004 5.63 5.63 0 0 0-1.652 3.992c0 1.44.55 2.89 1.652 3.992zm11.773-21.562a9.79 9.79 0 0 0 9.789 9.789 9.79 9.79 0 0 0 9.789-9.789 9.79 9.79 0 0 0-9.789-9.789 9.79 9.79 0 0 0-9.789 9.789zm63.293 45.52a5.65 5.65 0 0 0-7.984 0c-12.16 12.16-28.324 18.855-45.52 18.855s-33.36-6.695-45.52-18.855a5.65 5.65 0 0 0-7.984 0c-1.105 1.102-1.656 2.547-1.656 3.992s.55 2.89 1.656 3.992c14.29 14.293 33.293 22.164 53.504 22.164s39.215-7.87 53.504-22.164c2.207-2.203 2.207-5.777 0-7.984zm-15.97-75.066c2.203-2.207 2.203-5.78 0-7.988-20.7-20.695-54.37-20.695-75.066 0a5.62 5.62 0 0 0-1.656 3.992 5.63 5.63 0 0 0 1.656 3.996 5.65 5.65 0 0 0 7.984 0c16.293-16.293 42.805-16.293 59.098 0a5.65 5.65 0 0 0 7.984 0zm-15.973 15.97c2.207-2.203 2.203-5.777 0-7.984-11.89-11.89-31.234-11.89-43.125 0a5.63 5.63 0 0 0 0 7.984 5.65 5.65 0 0 0 7.988 0c7.484-7.484 19.664-7.484 27.148 0a5.65 5.65 0 0 0 7.988 0zm0 0" fill="#a65759"/><path d="M468.094 443.922c3.238 12.125.72 24.39-7.035 34.254-1.05 1.336-3.05 1.94-5.055 1.53l-133.82-27.484L70.914 393.2c-6.516-1.53-10.828-6.902-9.75-12.148l1.13-5.484c.508-2.48 2.145-4.5 4.4-5.832-1.766-2.062-2.656-4.598-2.266-7.172l.836-5.535c.8-5.297 6.703-8.848 13.344-8.03l256.19 31.43 135.074 20.44c2.023.31 3.69 1.566 4.215 3.184 3.87 11.938 1.996 24.316-5.234 34.578-.977 1.387-2.94 2.094-4.965 1.79l-1.352-.203 1.504.31c2.004.4 3.605 1.758 4.043 3.398zm0 0" fill="#ffe899"/><path d="M468.086 443.887a40.04 40.04 0 0 1 1.371 10.406c-1.355 3.16-3.137 6.19-5.363 9.02-1.04 1.324-3.043 1.9-5.03 1.504l-133.82-27.484L62.29 375.566c.512-2.48 2.145-4.504 4.414-5.832 1.867 2.18 4.72 3.84 8.102 4.45l254.016 45.79 133.727 20.242 1.504.31c1.988.4 3.598 1.738 4.035 3.363zm6.004-39.867c-.523-1.605-2.2-2.844-4.203-3.148L334.81 380.426l-256.19-31.43c-6.64-.816-12.543 2.734-13.344 8.03l265.824 47.918 135.074 20.445c2.004.3 3.977-.387 4.945-1.762 2.078-2.94 3.7-6.062 4.883-9.293-.176-3.437-.8-6.895-1.9-10.316zm0 0" fill="#fff2b4"/><path d="M468.094 443.922c3.238 12.125.72 24.39-7.035 34.254-1.05 1.336-3.05 1.94-5.055 1.53L331.98 454.23l6.734-32.79 5.98-39.52 125.188 18.95c2.023.305 3.69 1.566 4.215 3.18 3.87 11.938 1.996 24.32-5.234 34.578-.816 1.164-2.336 1.848-3.996 1.855l-.05.25c1.637.56 2.898 1.762 3.277 3.188zm0 0" fill="#fc544d"/><path d="M468.094 443.922c.926 3.465 1.367 6.94 1.363 10.37-1.352 3.152-3.125 6.176-5.34 8.996-1.05 1.332-3.05 1.938-5.055 1.527l-124.027-25.473 3.676-17.87 123.836 18.742 1.504.31c2.004.4 3.605 1.758 4.043 3.398zm6.004-39.87c-.523-1.613-2.19-2.875-4.21-3.18l-125.19-18.95-3.71 24.52 125.19 18.95c2.02.305 3.984-.402 4.965-1.793a39.99 39.99 0 0 0 4.863-9.262 40.14 40.14 0 0 0-1.906-10.285zm0 0" fill="#fd6c55"/><path d="M231.586 99.766l-1.582-1.64c-21.937-23.54 12.39-57.87 35.934-35.934.55.516 1.098 1.043 1.637 1.582 15.102 15.102 20.578 35.47 15.367 51.36-15.887 5.21-36.254-.266-51.355-15.367zm0 0" fill="#fd7d43"/><path d="M203.422 63.773l1.637-1.582c23.54-21.937 57.87 12.395 35.934 35.934a69.25 69.25 0 0 1-1.582 1.641c-15.102 15.102-35.47 20.578-51.36 15.367-5.207-15.89.266-36.254 15.37-51.36zm0 0" fill="#fdac89"/><path d="M188.05 21.922c15.89-5.21 36.258.266 51.36 15.367.54.54 1.066 1.086 1.582 1.637C262.93 62.47 228.602 96.8 205.06 74.86c-.55-.516-1.098-1.043-1.637-1.582-15.105-15.102-20.578-35.47-15.37-51.355zm0 0" fill="#fd7d43"/><path d="M282.94 21.922c5.21 15.89-.266 36.254-15.367 51.355-.54.54-1.086 1.066-1.637 1.582-23.543 21.94-57.87-12.39-35.934-35.934.516-.55 1.043-1.098 1.582-1.637 15.102-15.102 35.47-20.578 51.355-15.367zm0 0" fill="#fdac89"/><path d="M95.785 112.496c-7.81 7.813-20.473 7.813-28.28 0L53.887 98.883c8.32-10.844 17.547-20.836 27.488-30.11 12.113-11.3 25-21.773 39.438-30.21l10.332 10.297c7.81 7.81 7.81 20.473 0 28.28zm0 0" fill="#73d37a"/><path d="M111.367 96.918l-15.582 15.578c-7.81 7.813-20.473 7.813-28.28 0L53.887 98.883c3.11-3.996 6.305-7.945 9.645-11.746C71.64 95.06 82.77 100 95 100a44.91 44.91 0 0 0 16.367-3.082zm0 0" fill="#49cb5c"/><use xlink:href="#B" fill="#fff5f5"/><use xlink:href="#B" x="-16" fill="#fd8e82"/><path d="M80 197v40c0 11.008-5.934 20.62-14.77 25.836C71.074 266.328 75 272.695 75 280H65c-5.98 0-11.336-2.64-15-6.8-3.664 4.16-9.02 6.8-15 6.8H25c0-11.047 8.953-20 20-20h.016C41.246 254.984 39 248.758 39 242v-50.004c0-10.37 5.266-19.516 13.27-24.902C67.777 168.258 80 181.195 80 197zm62.27-29.906c-8.004 5.387-13.27 14.53-13.27 24.902V242c0 6.758 2.246 12.984 6.016 18H135c-11.047 0-20 8.953-20 20h10c5.98 0 11.336-2.64 15-6.8 3.664 4.16 9.02 6.8 15 6.8h10c0-7.305-3.926-13.672-9.77-17.164C164.066 257.62 170 248.008 170 237v-40c0-15.805-12.223-28.742-27.73-29.906zM260 237v-40c0-15.805-12.223-28.742-27.73-29.906-8.004 5.387-13.27 14.53-13.27 24.902V242c0 6.758 2.246 12.984 6.016 18H225c-11.047 0-20 8.953-20 20h10c5.98 0 11.336-2.64 15-6.8 3.664 4.16 9.02 6.8 15 6.8h10c0-7.305-3.926-13.672-9.77-17.164C254.066 257.62 260 248.008 260 237zm0 0" fill="#ffa799"/><path d="M71.555 206.238c-.7 2.762-3.184 4.602-5.906 4.602a6.06 6.06 0 0 1-1.504-.191c-7.664-1.94-20.62-1.94-28.29 0-3.266.832-6.582-1.145-7.4-4.4a6.1 6.1 0 0 1 4.41-7.41c9.617-2.437 24.676-2.437 34.29 0a6.1 6.1 0 0 1 4.41 7.41zm-4.4-27.4c-9.617-2.437-24.676-2.437-34.29 0a6.1 6.1 0 0 0-4.41 7.41 6.09 6.09 0 0 0 7.41 4.41c7.664-1.945 20.62-1.945 28.29 0a6.06 6.06 0 0 0 1.504.191c2.723 0 5.207-1.84 5.906-4.602a6.1 6.1 0 0 0-4.41-7.41zm0 60c-9.617-2.437-24.676-2.437-34.29 0a6.1 6.1 0 0 0-4.41 7.41 6.09 6.09 0 0 0 7.41 4.41c7.664-1.945 20.62-1.945 28.29 0a6.06 6.06 0 0 0 1.504.191c2.723 0 5.207-1.84 5.906-4.602a6.1 6.1 0 0 0-4.41-7.41zm0-20c-9.617-2.437-24.676-2.437-34.29 0a6.1 6.1 0 0 0-4.41 7.41 6.09 6.09 0 0 0 7.41 4.41c7.664-1.945 20.62-1.945 28.29 0a6.06 6.06 0 0 0 1.504.191c2.723 0 5.207-1.84 5.906-4.602a6.1 6.1 0 0 0-4.41-7.41zm90-40c-9.617-2.437-24.676-2.437-34.29 0a6.1 6.1 0 0 0-4.41 7.41 6.09 6.09 0 0 0 7.41 4.41c7.664-1.945 20.62-1.945 28.29 0a6.06 6.06 0 0 0 1.504.191c2.723 0 5.207-1.84 5.906-4.602a6.1 6.1 0 0 0-4.41-7.41zm0 20c-9.617-2.437-24.676-2.437-34.29 0a6.1 6.1 0 0 0-4.41 7.41 6.09 6.09 0 0 0 7.41 4.41c7.664-1.945 20.62-1.945 28.29 0a6.06 6.06 0 0 0 1.504.191c2.723 0 5.207-1.84 5.906-4.602a6.1 6.1 0 0 0-4.41-7.41zm0 20c-9.617-2.437-24.676-2.437-34.29 0a6.1 6.1 0 0 0-4.41 7.41 6.09 6.09 0 0 0 7.41 4.41c7.664-1.945 20.62-1.945 28.29 0a6.06 6.06 0 0 0 1.504.191c2.723 0 5.207-1.84 5.906-4.602a6.1 6.1 0 0 0-4.41-7.41zm0 20c-9.617-2.437-24.676-2.437-34.29 0a6.1 6.1 0 0 0-4.41 7.41 6.09 6.09 0 0 0 7.41 4.41c7.664-1.945 20.62-1.945 28.29 0a6.06 6.06 0 0 0 1.504.191c2.723 0 5.207-1.84 5.906-4.602a6.1 6.1 0 0 0-4.41-7.41zm58.71-48.18c7.668-1.94 20.62-1.94 28.29 0a6.06 6.06 0 0 0 1.504.191c2.723 0 5.207-1.84 5.906-4.602a6.1 6.1 0 0 0-4.41-7.41c-9.617-2.437-24.676-2.437-34.29 0a6.1 6.1 0 0 0-4.41 7.41c.828 3.266 4.145 5.242 7.4 4.4zm31.29 8.18c-9.617-2.437-24.676-2.437-34.29 0a6.1 6.1 0 0 0-4.41 7.41 6.09 6.09 0 0 0 7.41 4.41c7.664-1.945 20.62-1.945 28.29 0a6.06 6.06 0 0 0 1.504.191c2.723 0 5.207-1.84 5.906-4.602a6.1 6.1 0 0 0-4.41-7.41zm0 20c-9.617-2.437-24.676-2.437-34.29 0a6.1 6.1 0 0 0-4.41 7.41 6.09 6.09 0 0 0 7.41 4.41c7.664-1.945 20.62-1.945 28.29 0a6.06 6.06 0 0 0 1.504.191c2.723 0 5.207-1.84 5.906-4.602a6.1 6.1 0 0 0-4.41-7.41zm0 20c-9.617-2.437-24.676-2.437-34.29 0a6.1 6.1 0 0 0-4.41 7.41 6.09 6.09 0 0 0 7.41 4.41c7.664-1.945 20.62-1.945 28.29 0a6.06 6.06 0 0 0 1.504.191c2.723 0 5.207-1.84 5.906-4.602a6.1 6.1 0 0 0-4.41-7.41zm0 0" fill="#fd7c66"/><defs ><path id="B" d="M66 267c-16.57 0-30-13.43-30-30v-40c0-16.57 13.43-30 30-30s30 13.43 30 30v40c0 16.57-13.43 30-30 30zm120-30v-40c0-16.57-13.43-30-30-30s-30 13.43-30 30v40c0 16.57 13.43 30 30 30s30-13.43 30-30zm90 0v-40c0-16.57-13.43-30-30-30s-30 13.43-30 30v40c0 16.57 13.43 30 30 30s30-13.43 30-30zm0 0"/></defs></svg>