<svg xmlns="http://www.w3.org/2000/svg" viewBox="0 0 90 90"><path d="M70.94 65.832H66l.023-2.87a2.33 2.33 0 0 1 2.326-2.318h.315c1.282 0 2.332 1.043 2.332 2.318l-.057 2.87zm-18.526-6.148c-1.253 0-2.278.842-2.278 1.873V75.5c0 1.03 1.025 1.87 2.278 1.87 1.258 0 2.284-.84 2.284-1.87V61.557c0-1.032-1.026-1.873-2.284-1.873zM82.5 51.88v26.544C82.5 84.8 76.98 90 70.23 90H19.77C13.02 90 7.5 84.8 7.5 78.423V51.88c0-6.367 5.52-11.578 12.27-11.578h50.46c6.75 0 12.27 5.21 12.27 11.578zM23.137 81.305l-.004-27.96 6.255.002v-4.143l-16.674-.025v4.073l5.205.015v28.04h5.218zm18.75-23.796h-5.215v14.93c0 2.16.13 3.24-.008 3.62-.424 1.158-2.33 2.388-3.073.125-.126-.396-.015-1.59-.017-3.643l-.02-15.034h-5.186l.016 14.798c.004 2.268-.05 3.96.018 4.73.127 1.357.082 2.94 1.34 3.843 2.346 1.7 6.843-.252 7.968-2.668v3.083l4.188.005-.001-23.8zM58.57 74.607l-.01-12.427c-.004-4.736-3.547-7.572-8.356-3.74l.02-9.24-5.21.008L45 81.1l4.284-.062.4-1.986c5.473 5.02 8.914 1.58 8.906-4.444zm16.32-1.647l-3.9.02-.01.53v2.182c0 1.168-.965 2.12-2.137 2.12h-.766c-1.174 0-2.14-.95-2.14-2.12v-5.74h8.954v-3.37c0-2.463-.063-4.925-.267-6.333-.64-4.454-6.893-5.16-10.05-2.88-.99.712-1.748 1.665-2.188 2.945s-.665 3.03-.665 5.254v7.4c.002 12.318 14.964 10.577 13.18-.018zM54.833 32.732a3.55 3.55 0 0 0 1.254 1.584c.56.394 1.276.592 2.134.592.752 0 1.418-.203 1.998-.622s1.065-1.04 1.463-1.87l-.1 2.046h5.813V9.74H62.82v19.24c0 1.042-.858 1.895-1.907 1.895a1.91 1.91 0 0 1-1.904-1.895V9.74h-4.776v16.674c0 2.124.04 3.54.102 4.258s.23 1.397.498 2.06zM37.217 18.77c0-2.373.198-4.226.59-5.562.396-1.33 1.107-2.4 2.137-3.208s2.342-1.217 3.94-1.217c1.345 0 2.497.264 3.46.78.967.52 1.713 1.195 2.23 2.028.527.836.885 1.695 1.076 2.574.195.89.29 2.235.29 4.048v6.252c0 2.293-.092 3.98-.27 5.05s-.557 2.07-1.146 3.004c-.58.924-1.33 1.615-2.237 2.056-.918.445-1.968.663-3.154.663-1.325 0-2.44-.183-3.36-.565s-1.636-.953-2.144-1.714-.874-1.7-1.092-2.772-.323-2.707-.323-4.874l.003-6.545zm4.553 9.82c0 1.4 1.042 2.543 2.31 2.543S46.39 30 46.39 28.6V15.43c0-1.398-1.038-2.54-2.308-2.54s-2.31 1.143-2.31 2.54V28.6zm-16.088 6.645h5.484l.006-18.96L37.652.033h-5.998L28.21 12.097 24.715 0H18.78l6.894 16.284.01 18.95z"/></svg>